<?xml version="1.0" encoding="utf-8"?>
<!-- Generator: Adobe Illustrator 23.0.2, SVG Export Plug-In . SVG Version: 6.00 Build 0)  -->
<!DOCTYPE svg PUBLIC "-//W3C//DTD SVG 1.1//EN" "http://www.w3.org/Graphics/SVG/1.1/DTD/svg11.dtd" [
	<!ENTITY ns_extend "http://ns.adobe.com/Extensibility/1.0/">
	<!ENTITY ns_ai "http://ns.adobe.com/AdobeIllustrator/10.0/">
	<!ENTITY ns_graphs "http://ns.adobe.com/Graphs/1.0/">
	<!ENTITY ns_vars "http://ns.adobe.com/Variables/1.0/">
	<!ENTITY ns_imrep "http://ns.adobe.com/ImageReplacement/1.0/">
	<!ENTITY ns_sfw "http://ns.adobe.com/SaveForWeb/1.0/">
	<!ENTITY ns_custom "http://ns.adobe.com/GenericCustomNamespace/1.0/">
	<!ENTITY ns_adobe_xpath "http://ns.adobe.com/XPath/1.0/">
]>
<svg version="1.1" id="Layer_1" xmlns:x="&ns_extend;" xmlns:i="&ns_ai;" xmlns:graph="&ns_graphs;"
	 xmlns="http://www.w3.org/2000/svg" xmlns:xlink="http://www.w3.org/1999/xlink" x="0px" y="0px" viewBox="0 0 350 350"
	 style="enable-background:new 0 0 350 350;" xml:space="preserve">
<metadata><?xpacket begin="﻿" id="W5M0MpCehiHzreSzNTczkc9d"?>
<x:xmpmeta xmlns:x="adobe:ns:meta/" x:xmptk="Adobe XMP Core 5.6-c145 79.163499, 2018/08/13-16:40:22        ">
   <rdf:RDF xmlns:rdf="http://www.w3.org/1999/02/22-rdf-syntax-ns#">
      <rdf:Description rdf:about=""
            xmlns:xmpMM="http://ns.adobe.com/xap/1.0/mm/"
            xmlns:stRef="http://ns.adobe.com/xap/1.0/sType/ResourceRef#"
            xmlns:stEvt="http://ns.adobe.com/xap/1.0/sType/ResourceEvent#"
            xmlns:dc="http://purl.org/dc/elements/1.1/"
            xmlns:xmp="http://ns.adobe.com/xap/1.0/"
            xmlns:xmpGImg="http://ns.adobe.com/xap/1.0/g/img/"
            xmlns:xmpTPg="http://ns.adobe.com/xap/1.0/t/pg/"
            xmlns:stDim="http://ns.adobe.com/xap/1.0/sType/Dimensions#"
            xmlns:xmpG="http://ns.adobe.com/xap/1.0/g/">
         <xmpMM:DocumentID>xmp.did:5381153c-e53c-e842-9921-bc0105c280a9</xmpMM:DocumentID>
         <xmpMM:InstanceID>xmp.iid:5381153c-e53c-e842-9921-bc0105c280a9</xmpMM:InstanceID>
         <xmpMM:OriginalDocumentID>xmp.did:7c9fc1d7-49a6-2647-a87a-86685faf836e</xmpMM:OriginalDocumentID>
         <xmpMM:RenditionClass>proof:pdf</xmpMM:RenditionClass>
         <xmpMM:DerivedFrom rdf:parseType="Resource">
            <stRef:instanceID>xmp.iid:62d7ba38-518d-754d-834d-64ed8b64d60b</stRef:instanceID>
            <stRef:documentID>xmp.did:62d7ba38-518d-754d-834d-64ed8b64d60b</stRef:documentID>
            <stRef:originalDocumentID>xmp.did:7c9fc1d7-49a6-2647-a87a-86685faf836e</stRef:originalDocumentID>
            <stRef:renditionClass>proof:pdf</stRef:renditionClass>
         </xmpMM:DerivedFrom>
         <xmpMM:History>
            <rdf:Seq>
               <rdf:li rdf:parseType="Resource">
                  <stEvt:action>saved</stEvt:action>
                  <stEvt:instanceID>xmp.iid:7c9fc1d7-49a6-2647-a87a-86685faf836e</stEvt:instanceID>
                  <stEvt:when>2022-02-27T12:47:14+06:00</stEvt:when>
                  <stEvt:softwareAgent>Adobe Illustrator CC 23.0 (Windows)</stEvt:softwareAgent>
                  <stEvt:changed>/</stEvt:changed>
               </rdf:li>
               <rdf:li rdf:parseType="Resource">
                  <stEvt:action>saved</stEvt:action>
                  <stEvt:instanceID>xmp.iid:5381153c-e53c-e842-9921-bc0105c280a9</stEvt:instanceID>
                  <stEvt:when>2022-02-27T14:06:42+06:00</stEvt:when>
                  <stEvt:softwareAgent>Adobe Illustrator CC 23.0 (Windows)</stEvt:softwareAgent>
                  <stEvt:changed>/</stEvt:changed>
               </rdf:li>
            </rdf:Seq>
         </xmpMM:History>
         <dc:format>image/svg+xml</dc:format>
         <xmp:CreatorTool>Adobe Illustrator CC 23.0 (Windows)</xmp:CreatorTool>
         <xmp:CreateDate>2022-02-27T14:06:42+06:00</xmp:CreateDate>
         <xmp:MetadataDate>2022-02-27T14:06:42+06:00</xmp:MetadataDate>
         <xmp:ModifyDate>2022-02-27T14:06:42+06:00</xmp:ModifyDate>
         <xmp:Thumbnails>
            <rdf:Alt>
               <rdf:li rdf:parseType="Resource">
                  <xmpGImg:width>220</xmpGImg:width>
                  <xmpGImg:height>256</xmpGImg:height>
                  <xmpGImg:format>JPEG</xmpGImg:format>
                  <xmpGImg:image>/9j/4AAQSkZJRgABAgEASABIAAD/7QAsUGhvdG9zaG9wIDMuMAA4QklNA+0AAAAAABAASAAAAAEA&#xA;AQBIAAAAAQAB/+4ADkFkb2JlAGTAAAAAAf/bAIQABgQEBAUEBgUFBgkGBQYJCwgGBggLDAoKCwoK&#xA;DBAMDAwMDAwQDA4PEA8ODBMTFBQTExwbGxscHx8fHx8fHx8fHwEHBwcNDA0YEBAYGhURFRofHx8f&#xA;Hx8fHx8fHx8fHx8fHx8fHx8fHx8fHx8fHx8fHx8fHx8fHx8fHx8fHx8fHx8f/8AAEQgBAADcAwER&#xA;AAIRAQMRAf/EAaIAAAAHAQEBAQEAAAAAAAAAAAQFAwIGAQAHCAkKCwEAAgIDAQEBAQEAAAAAAAAA&#xA;AQACAwQFBgcICQoLEAACAQMDAgQCBgcDBAIGAnMBAgMRBAAFIRIxQVEGE2EicYEUMpGhBxWxQiPB&#xA;UtHhMxZi8CRygvElQzRTkqKyY3PCNUQnk6OzNhdUZHTD0uIIJoMJChgZhJRFRqS0VtNVKBry4/PE&#xA;1OT0ZXWFlaW1xdXl9WZ2hpamtsbW5vY3R1dnd4eXp7fH1+f3OEhYaHiImKi4yNjo+Ck5SVlpeYmZ&#xA;qbnJ2en5KjpKWmp6ipqqusra6voRAAICAQIDBQUEBQYECAMDbQEAAhEDBCESMUEFURNhIgZxgZEy&#xA;obHwFMHR4SNCFVJicvEzJDRDghaSUyWiY7LCB3PSNeJEgxdUkwgJChgZJjZFGidkdFU38qOzwygp&#xA;0+PzhJSktMTU5PRldYWVpbXF1eX1RlZmdoaWprbG1ub2R1dnd4eXp7fH1+f3OEhYaHiImKi4yNjo&#xA;+DlJWWl5iZmpucnZ6fkqOkpaanqKmqq6ytrq+v/aAAwDAQACEQMRAD8A9U4q7FXYq7FXYq7FWKa3&#xA;+aXkbR2aO41OOadesNqDO1R2JSqqf9ZhmPPVY48y5+HszPk3EaHnsw7UP+cidHjJGn6RcXA7GeRI&#xA;P+IibMaXaMegdjj9n5n6pAe7f9SQ3X/ORHmJifqml2cQ7eqZZf8AiLRZSe0ZdAHLj7P4+spfZ+1J&#xA;7n88vzAmr6dxb21f99QIabf8WeplZ12QuRHsTTjmCfillx+a35hTmr61KP8AjGsUf/EEXKzq8h6t&#xA;8ey9OP4B9qXTeePOc+0mu35BFCouZQCPcBgMgc8z/Efm3R0WEcoR+QQUuv67Kay6ldSEilWmkO3h&#xA;u2ROSXeW0YMY5RHyQr3VzIvGSV3U9VZiR+ORssxEDopYGTsVdiqtHd3cQAimkQLuoViKd9qHCCWJ&#xA;gDzCMg8zeZIDWDVbyI1rVLiVd/HZskMsh1LVLTYjzjH5BM7X8yfPltT09cump/v1/V9v92c8sGpy&#xA;D+ItMuztPLnAfd9yfad+evny1dTcS298g+0s0KpUfOH0stjrsg57uJk7E08uQMfj+u3pnkz86PL+&#xA;vTR2V8h0vUZKKiyMGhkY7AJJQUJ8GH0nM7DrYz2OxdLrOx8mIcUfVH7fk9DzNdO7FXYq7FXYq7FX&#xA;Yq7FXYq7FXYq+b/zQ/M7Ute1K503T7hodCgYxKkZ4/WOJoXkI3Kk/ZXpT3zSarVGZofS9n2Z2bHF&#xA;ESkLyH7HnuYbt3YqrWtpd3cwgtYZLiZvsxRKXY/JVBOIDGUhEWTQZZpn5SeeL4KzWa2cbdHuZFT7&#xA;0Xm4/wCBywYpFwcnaeGPW/cnR/Ju2sgG1vzJZ2FBVhtTx+1K8X6ssGnJcOXbQ/hisbyr+T1n/vb5&#xA;recjr9WZGH/CRzeHjlg0rTLtjKeUQsM35CW3/HzeXvyWdev+wi6ZIaVqPaec9w+C3/F/5H2v9x5f&#xA;vJ26gtVlr039S4P6skNKGo67UH+L7v1NH80fy1g/3m8mxygbD1lg6fSsu+TGmDWdTmP8Z+a0/nZo&#xA;cX+8nk2ziI2Dc4/s+FFgX9eHwAwOTIecj82v+V93C/DD5es44x9lORNPHoq/qyXghib7y1/yv2+/&#xA;6sNl97f0x8EIo97Y/PdZdrzyzZ3CdOIemx6j4o364DgCQZDkSqx/mN+VWqnhq/lf6iX2MtqEIBPU&#xA;s0XoP9NDkJaYN0NVmjykfv8AvV7j8tvLPmC0kvvI2rLctGKvp87fEK9BVgrp7c138cxp6ch2ODtc&#xA;g1kHxDzm7tLqzuZLW6iaG4hYrLE4oykdiDmMQ7yMhIWNw9//ACT89T63pkui6jKZNQ05Q0MrGrS2&#xA;/wBkV8TGaAnwIzc6LPxDhPMPJds6EYpccfpl9h/a9NzOdI7FXYq7FXYq7FXYq7FXYql3mW8ay8u6&#xA;peKeLW1nPKp8CkTMP1ZDKaiT5N2mhxZIx75D73x9nNvoipBbz3E8cEEbSzSsEjjQFmZjsAAOpxRK&#xA;QAs8npGnflx5f0DT01fz3fLbI28emxt8THrxYpV3PtH08cyceAnm6LU9rEmsXzQmo/nZa6dC1j5N&#xA;0aCwthsLmZRzam3L00IFfdmbMyOEB1M5SmbkbYTq35hedNWLfXdXuCjdYom9GP8A4CLgp+nLRABA&#xA;iGPMzMxZiSxNSTuSTkktYq7FXYq7FXYq7FXYqyDy55D80+YgZNNsmNqted3KRFCKdfjagNPBa5GU&#xA;wEErfNPkrXPLTwfpFI2gugTbXUDiSJ+NOQDCm4r3GMZg8lS7RtZ1LRtRh1HTp2guoTVXU9R3Vh3U&#xA;9xhItSHq/wCYsdn5j8o6R53s4hHPMBBqCL47rv8A6kiFQe4IzXaiFO27IzkSOM8uYY/+VWqvpvn3&#xA;SZAfguJfqki+IuB6Yr8nZT9GR0k+HIHP7UxcenkO4X8n1Lm/eFdirsVdirsVdirsVdirsVY9+YX/&#xA;ACg2u/8AMFN/xA5TqP7uXuczs/8Av4f1g+Ts55756n5dt9M8g+UR5t1WET61fjjpVq2xVXFVp/Ly&#xA;X4nbsu3U75mDFbzfaWrOSXhx+kc/MvJtf8watr2pS6jqc7T3Eh2r9lF7Ii/sqPDM8CnXAUl2FLIf&#xA;JflGbzLqUkBnWzsLSJrjUL1xVYoV6mm1Sewr+rITnwi135DmyaS2/Jq3Y2wh1e7VNjfI0Slj4qjF&#xA;NvmBmIdW7GPZWYi7iFM+VfyrvTxsvMV5prt9kX1uJh9LRBF/HJjVhqn2dnj0v3FTb8orq4+LRtf0&#xA;rUl3oiz+nL9KENT78tGeJcaWKcfqiR8EPN+TP5ix146WJVAryjuLf8AZAfwyfiRauIKMf5Q/mNIS&#xA;F0ZwRv8AFNbr/wASkGPiBeIIqP8AJbz0FDXUNtYp3a4uYgB9KF8ByxSDfJXT8svL9l8WuebrCLju&#xA;0NiGu3+W3Ej/AIHK5amIb4aXLLlE/ciI9R/LHQt9K0ibXLxel1qbAQg+IhUUYf6yj55jz1R6Odi7&#xA;JmfrNe5K/MPnjzJry+le3XCzFOFlAPSgUDoOA607cicxpTJ5u2waLHi+kb9/VMNVLD8mbUXO7HWW&#xA;+oV6iP0W509ufL6czNI6TtSvH2/m7vOczXAeueRH/SX5PeZdNf4msZGuEH8qhUmH/DRNmJqRs36O&#xA;XDnifP79mGeWpRD5j0qU1pHeW7GnX4ZVO2YOI+oe96fUi8ch/RP3PsDOkfO3Yq7FXYq7FXYq7FXY&#xA;q7FWPfmF/wAoNrv/ADBTf8QOU6j+7l7nM7P/AL+H9YPmHy1pi6p5g07T2/u7m4jjk/1Cw5/8LXNB&#xA;EWXuNRk4McpdwT389Nae884DTENLXSYUiSNfsh5VEjkfQVX6M22IbPHRecZYzdir0L8rFN5pHmzR&#xA;of8Ae69sUltlH2n+rsxZF/1uYFMx9QLi26eYjljI8rYpmrevXwwzTypDBG0s0h4pGgLMxPYAbnFB&#xA;IAssvt/yt8wLAtzq89polq2/qX86xmnso5b+xplscMi67L2rijyuXuXppHkDTqC486szqa+nY20z&#xA;Co8JFLL9OXDSycKfa18ofMq6Sfl3ct6K6/rd643/AHUTMD8lIJyX5U97V/KchyhFRn0X8tZZOD6/&#xA;f6dcPsG1C0cgn3Kqv4nAdKWyPa8xziPglHmbyheaHHb3a3MOoaXeV+qahatzjcr1U+Df5+OY08Zj&#xA;zdppdbDNy2I6JBkHMRWmabeanqEFhZxmS5uXCRIPE9z4ADcnwwgWwyZBCJkeQTv809StIZ9P8qaf&#xA;IJLLy/EYppB0ku5N5m+g/ca5tcMOEPIZMhyTMz1YHlzF6z+TwI8m+d2l3tvqnQdaiCfn+FMx9RyZ&#xA;4f72H9YfewvQwTrWngbk3MNB/wA9Bmuh9Q971mf6Je4vsTOkfOnYq7FXYq7FXYq7FXYq7FUk88Ri&#xA;TyXryEcv9x90QB4iFiOnuMqzj0S9xcrRGs8P6w+986flVGJPP+kqezTN/wADBI38M0OL6g9l2kaw&#xA;S+H3hIPzIlaXz3rjN1F3In0IeI/Vm2hyeXjyY3kmTsVTLy5r17oOtWurWR/f2r8uJ6Op2dG9mUkY&#xA;CLCCLZz5x0Cyv7RfOHlxTLo98S15bqKvaT9XR1HRST8voK5q82IxLvuztbxDgl9Q5eaJ8jvc2Hk7&#xA;zBrOiQLceY7UokbFebwWzj45Y03qftfd9Bnpogndp7YnK4x/h/S8zvtQvr+5e6vriS5uZN3mlYux&#xA;+k1zYgOoZP8Alv5c0rVb++vdYDSaXo1q17c28f2peH2Y9ux3rkMs+EWmMTKQiOZNM78seb9f128u&#xA;rTS5YfLmjWFu909vYWqTSmJCBxReJLPv1UD5ZgRnKZdrqNJi08ASOOR86TPQ/O9prN4uk2et3l9P&#xA;IfTEGoabHNCzeL+gEdUPfk22XnFIb262WTGecK9xP6bYP5580S3oTQY9PttNtdLnmEkNp/dST82V&#xA;pFoFovWg98xMmQy5u/0GjjjHGCTxD7GPaTo2qavdraabbPc3DfsoNgPFm6KPc5WATyc3LljjFyNB&#xA;mF7f6b+XemzWlnPHeedbtDHPPGecdjG3VVP+/P8APp9rOwYK3Lzet1pzGhtAfa8td2di7ks7ElmJ&#xA;qST1JOZrhrcVeyw2TeTvyflhux6ereYXr6LbOqOB8JHX4YlqfAtTMHUzcvs7EZ5gekd2I+QLB77z&#xA;roluorW8ikcD+SJvUf8A4VDmPp43kA83fa+fDgmf6J+3Z9ZZ0LwDsVdirsVdirsVdirsVdiqB1+E&#xA;z6FqMArWW1mTbr8UbDbIZBcT7m3BKskT5h8x/llII/PekMTSsrL/AMFGy/xznsf1B7jtAXgklP5o&#xA;RGPz/rakAVuOVB/lqrfxzbQ5PLR5MWybJ2Ksg8keUp/M2tLaB/QsYVM+oXZoFigX7RqdqnoP6A5G&#xA;cqCHpGkfmX5S0C+fS9K0ONNBY+jPdg1uJlBI9Vww+MUJ+Fj93TNfLUWd+TtR2RLgvi9adX3kuPT9&#xA;Rttf8i6jFa3F4vOCwkb/AEe5U/EyRMdjWleB+Y40x8PrFrjrRIeHnF+fUMW1zRPJutXjwaxbv5N8&#xA;yneQlOVjMx/apsF5fzAge7ZbDUVsWuehlXFjPHH7UDpXlL8wPJOpDV9Os49a06RDFObRhcQ3ED0L&#xA;KUA9Tt147e4zIMoyDgnY0diirTUfy6k1AX1hqV95N1dK84JImmiVj9pV4fFx9mIHtmMdMbsOwj2j&#xA;Mx4ckRMJ3d+Ymubdorn8zIVt2FGMFmEkodv91cH/ABweDM9WMdRgibGLf+sxZrj8otMJke5v/MU/&#xA;URon1aFj/lF+En3HDHSd7bk7VynaIEftQGr/AJravLZtpugWsPl7S22MVmP3zginxzUDE+6gHMmG&#xA;ERdfOUpm5Gywgkkkk1J3JOWoZZ5e/K3zrrqJNbWBgtX3W5uj6KEHuAfjYe6qcgZgMTIBneneS/I3&#xA;kIrqPmW+TVdZi+K30+IAqrjcERk1Psz0HtXMfJnAb8GmyZj6Rt3sL84ebtQ8z6qb26HpxIOFtbKS&#xA;VjTw9yf2j3zAnLiL02l0scMeEfEvTPyG8lXCSSeab2PgjI0Omqw3bltJKPag4jx3zZaDB/Gfg6Pt&#xA;zWAjwo/H9T2nNm807FXYq7FXYq7FXYq7FUNc6lp9rdWlrcXEcVzfu0VlC7APK8cbSuqL1bjHGzH2&#xA;GKoh1V1KMKqwIYeIOKgvkzymzWHnbS1ckGG/iikO429UI2c3HaT6BqfVhl5x/Qq/nVbej+YmoPSg&#xA;nSCQdP8AfKoenumbXHyeThyYLljJ2KvTJP8AnWvyzsbOL4NS8zsbu8cbMLRNok+Tgg/SwzA1U+js&#xA;uy8HHkMzyj97CswnomW+T/NVpb20vl7X1afy7fMORBPO1krUTREbih3NPn7G7FlMS63X6HxRxR+s&#xA;fam3mDzL5m8qzppXmGCDzV5cnHPTby6UFpIiBQpOvL4wDvyqe4NKZn8EZh52EpQNxJjJZpGueQJp&#xA;fV0XWtQ8oXrmphl5TWpbwqpNR/xkOUHTEcnN/PyIrJGMx9rJLxPNVxZLNqml6X530sDa7tOBnAp+&#xA;yyDrT+RT88jxTiohpsn0k4z58vx8WHzeRfKXmUSDynPJputIGLaBfn7RX7SxSnvt+0T78cux6kHY&#xA;tWo0mTFud494ec3VrcWlzLa3MbRXEDGOWJhRlZTQgjMpx1LFXq35aeWtE0jy9N578xRCaKJiul2r&#xA;AHkytx5hTsWL7LXpQt8sfNkplixSyzEIqV15x/MLzpqRstK9ZFevCxsiUVU6Vkk+E08SzU+WYIM5&#xA;mg7+Ol0+njxTr3lMbH8hfO90wkvJbW05GsnqStJJv/xjV1J/2WZEdBkPOg0T7dwR5An4M58sfkP5&#xA;d02VLnV521adCCISvpW9f8pAWZ/paniMysWgjHeW7q9T25kmKgOAfa9NRERFRFCooAVQKAAbAADM&#xA;90hNqF9qVhYRxSXtxHbJNNFbQtKwUPNO4jijWvVndgAMUIjFXYq7FXYqgNd1/RdA0ubVdavYdP06&#xA;3AM11OwRBU0AqepJ2AG5OKsZ87fmnoXl78tbzz5p7R63psKRtafVpV4TvLOtuoEnxAcXb49iRQ7V&#xA;GKvIfyD/AOcjfMXmfz1eeXfOfpwSawBc6CFj9FIj6YcW61+Jkki+ONmJJPc8hirKvPbN/wBDPflm&#xA;tTxFjqpC9gTaT1P4Yq9pxV8m+aEbSvPep0HH6rqMskYAp8ImLp4fs0zncwqZ973+lPHgj5xH3Jz/&#xA;AM5A2oTzZZXSUMdzYp8Q7skj1P8AwJXNliOzycHl+Ws1aS1uY4IbiSNlhn5ejIRQPwNG4+NDir0b&#xA;81/3ev2Vou0Fnp1tDCvgoUn+OanOfU9B2QP3N95K2y1L/CPkm31u0hibXdauJIrK5lQSehb29A7I&#xA;rAjkZNv9rL9NjB3LhdqZycnAD6Qo2PnjQ/Mo+oecbaK2uX2t/MFpGI5Ec9PXjXZ0+XT8cuyacHk4&#xA;mn1eTEdjY7k5jEmh2/8AhfzhGL7ypqHx6fqcJ5rETus9vIK7fFUr+sE8sWEzjNFz82KGqjx4/rHM&#xA;fj72G+bfy71rQD9ajH6R0SQc7bVbYc4mQ9C/GvA/PbwJzYQmJOn5GjsUg0zV9U0q5Fzpt3LaTj/d&#xA;kLlCadjTqPY5Ii1p6L+ZF1dLqXl/Wam21e60u1urp0ojCff46ClDtT6M1ecVLZ33ZPqxGJ3FpZ+b&#xA;qRXN9o2uqixzazp0M90qilZlHFm+7iPozPwSuLpMkOCco9xYEASQAKk7ADLmL2T83D+i9H8ueWIT&#xA;xitLYSTKOhZVESt94f781eolZdv2Nj+qfweoflJ5Yt9D8nWcvAC91KNbu6kp8R9Qco0/2CEbeNc2&#xA;ukxCMB3l0naupOXMR/DHYM0zKda7FXE0BNK07Drir5o/Nkfnp5y82+W77RfIk1np/lXUBqNkl5eW&#xA;tLqWKRJI3nUSosQAipxDn7R+LFV9j+e35/6nqtzpmh+UdJ1q4siUvZdPeaa2hkH+6nuvWFvzpvxV&#xA;z99cVTX/AJWT/wA5Wf8AlubH/kaP+yrFVWz/ADC/5yquLuGB/wAv9Nt1ldUaeWYiOMMaF343LHiv&#xA;U0BOKvcuOofo/jzi/SHpU9Tg3o+tx+1w5cuHLtyrTvirGfzT/L/Q/Pnk+50PWrmSytAy3S3sTKph&#xA;eGpDnmCvGhPKvbuOuKvCdP8AI9r57stH/LLyZPcyflf5auXudf8ANM236QujI7NBaMAqOF5sOQHE&#xA;bNvReaqb/wDOVX5fx6domi/mD5biFlqflWS2gYwqAFtUcC2an/FEvFV9m36DFURJ5nt/NP54/k55&#xA;itwFj1PR7+4aMb8Hazn9SP8A2D1X6MVfQuKvmT85bE2v5hakQKJciGdPflEoY/8ABq2aLWxrIXt+&#xA;x58Wnj5WPtRn5xL9e8peUNZG5e39KZv8p4o2pX2KNmVpzs6DLHhySHmXlEMMk0yQxKXlkYJGo6lm&#xA;NAPvzIYvXfzY8tWFj5I0eGxIkfy9N9QvWQdHuIVmdm/1nofm2UY52SxAI3PVK/zN/wBKm0PWk3h1&#xA;TTIHr/xYgo6/7Gq5g6gVJ6Dsid4zHuKXecgX/Lvya67rE+pRyHwZp1YD7hmXpPpdZ2gP38vh9zBM&#xA;ynEZZ5T8+TaVbNo+qwDVfLk5/fWEh+KMk/3kDfsMOvh8jvleTGJBMJygeKJos10J/qrGfyP5stls&#xA;5TyfR9UcQyKT1UxyAo57Flp88wjhnHk7E6zFlH76Pq7x+P1p1DD5plmEtvoHli51QfEk0QiMtR+0&#xA;PjrX6cPFkpp4NLf1Tr8eTz/zRZ+ab7Xr19WZbrULeIy3hidHSGNB9kmP4Ep04+J8TmNIEnd3mmli&#xA;jAcG0Ty81T80vg07yhD1K6PDJX2k3A+imbHT/S85qDeWf9YsS8s2wuvMelWpFRPeW8RG2/OVV7/P&#xA;LzyaS9G/OIve+fo7RDV1ggt0HgXJYf8AJzNVl3lT0HZXpwX5kvo6CGOCCOCMUjiUIg9lFBnQAU8X&#xA;I2bK/Ch2KuxV4P8A85haj5wsfy6tW0WaSDSJ7r0NeeCocxOv7pXdd1iZwVbxJVe9Cq8R1j/nJTVd&#xA;P8k+XvKn5ewHy3bWNlGmrXISNppLrpL6THnRGb4y9OZJ7U3VfT3/ADj15p81eZ/yt03VvM3KTUJH&#xA;mjju3UI1xDG5CSsoAHitab0r3xV6RirsVYV+Y35U6N5/iitta1PVINPiWh06yuFgt5GrXnKnpvzb&#xA;sORoOwG9VXn/AP0Jt+Uf+/tV/wCkmL/qjiqV6J/zi9+QOuvepo2r32oNp05tb36vewyelMAGKMRD&#xA;7/fUdQcVSvTfyn8r/lz/AM5I+QLLy+9y8N/balNP9akWRuSWdwo4lUSgpir6cZ0VlVmAZzRATQkg&#xA;VoPoGKvB/wDnIjT/AE9e0u/AoLm1aE7dTBJy/VMM1PaMfUD5PV+z+S8co9x+/wDsS3V1/Sv5E28v&#xA;2pNHuxzPcD1GjH/C3C5HSlxe0YcOc+bBvy2slvPPeiQuAVF0kpB6fuay/wDGmZczs4UuTPdIvU8x&#xA;a55v8tXL0XXWmksCx2W4tnLQ/wDCqK/6ua/Dkqbt9dp6wQkP4QL+P7Uq0aKXX/y+vNClUjW/Ksr3&#xA;EELD4zbMT60fjVGr/wAKMu1ULFuN2fn8PLv9Mtv1IW1i/TX5aanpyfFe6HcrqcK/tNbuvpzAeyfb&#xA;OV6Se9OR2tiqYn0Ip55mwdW7FWVeWvy91jWLf9I3LJpWhp8UuqXfwRlf+KlNDIfCm3vlc8gisQZG&#xA;gLLLtLu40c+W/wAurR/WnBW+16YUuJE/aYNT9zF+P+y64M8xmaDtsWihij4mY/D8c0yum8u6Z+Xf&#xA;mCx0eX65cRyW1vfasKcZ55JAzpGevBFFB23xnj4IMMGeWfUxJ5C6DE/zaPCTyvbdfS0K0+LxqXXp&#xA;/scy9P8AS6/MbySP9I/ekv5cQev570NKVpdxvuK/3Z5/8a5bPk1S5M812P6/+eEEVCU+v2Sldz8M&#xA;aRFun+qc10ReUe8O+xHh0RP9GX6X0Tm+eNdirsVdiry//nIDzxdeX/LNjoel2NvqOvebbtNI020v&#xA;EWS3rKQrvJGwKuAXVQp2qwJqBTFXyX+bv5B+cPy8lt7iZTquk3MStLqdrEwhiuKfvIXArwAP2GYA&#xA;MOm4ICr65/5xzl84S/lPpB81LKt6vNLP6wpSY2amluZAQD9n7JPVaHFXpeKuxV2KvHf+co/M9zp/&#xA;5dr5e0qSX/EHmm6h0/Tre2ZhO6+oryheJB4sAIm8edO+KvEfLNl5k/5x3/NbSItcuFm8veYbaKPU&#xA;biOohIbiJTvX4rOdq16lD250Cr2bz0Qf+cn/AMsyNwbHVKH/AKNLjFXn9roa/mt+a35ny65POs3l&#xA;RJrLyyYZpIvqc0Eskcc8fAjflbcmr15H2oqybWtYvPOf5B+UvNl03rX8ZEd7MRQsyF7WaQ+7ywgn&#xA;55gdoRuAPcXedg5KymP84fct/LVBq3kjzX5fO7vCZ7dPGRoyAfoeJMwdNKi5/bMKlGXwYh+TjKv5&#xA;kaOSQBW4FT4m1lAzPyfS6iXJAi9u9O1s3luxjurW4MiE9nR67/xzT3Rex4BOFHkQzTzBfyaXq2mf&#xA;mb5fTlZX5EesWgOyTkUmjfwEgFQT+18XcZs8UhONPJZsJxyMD0Wasn+G9UtfOXlnjceXtUDcYmFU&#xA;X1B+9tZVHQdaDtSnbMKcTCVu502WOpxeHP6h+LSme2/KW/kNyU1XSnk3ezg9GaJSf99s/wAXH55e&#xA;NW4suysoOxiQvh1zyFovxaFoL312PsXusOJeP/PCOkdffIT1RPJuxdkH+OXyRp07zJ5ni/TvmvUj&#xA;p2gxbrc3HwoR/LbQCnInpsN/fK4wlMt+TUYdMOGAuX45lJPMPny2TT30DynA2naM21zdMf8ASrs+&#xA;MrD7Kn+Ufq2zPxYRF0ubNPLLimUUq/UvymsIzs+q6pNdA9zHbx+jT5csxtWejn9kxvIT3D71n5xf&#xA;DrWjQ9oNGtIw3jQyGv45k4PpddM3OR8yh/ybg9b8xdKr9mP15D/sYJKfjTJ5OTXLky/y/S9/Pc1p&#xA;8F/dddv9545P+qeYOnF5g7zU+nQ/5o+0h9C5vHj3Yq7FXYq8K/5yK/5T/wDJ/wD8COL/AKibXFWa&#xA;/mV+eHkf8u9R0zT9elma51GrlLZBK0EAqBNKvINxZxxFASaGnTFU98ufmR5C8yW6T6Jr9jeq4qI0&#xA;mRZRUVo8LlZEPsyjFU11bXtE0e3e51bULbT7dF5PLdSpCoXxq5XwxVV/SVj+jf0n6y/UPR+s/WN+&#xA;Po8OfP5cd8VYp+Yv5jXPlK2VdP8ALOseZtTlQvBbaZZzywrvQetcqjoladF5N/k03xV4J5W86+eU&#xA;853Hnnzn+XHmbWvMlGg0iOHT547PTrY1+C3Royxdgxq7b/eTirX55+bPNH5l+U4NKh/LDzNZajZ3&#xA;SXNpeS2E7hRxKSIeMXKjq1fmBiqTaV+YXm23/Mj8srnzD5Q1z9LeXNNurKWzFrILy+X6tLEZreKU&#xA;Rs5RDyffscVZj5a0bzB5G/L381fzG80WraXqXmozy2Gnz8TNF9ZeUQ+qq1AZ5rwAoRUce1cVZl+W&#xA;/lC8X/nGPTtFuYyLqTTpr6OMihrNcSX0Ip40dcp1EOKBDl6DL4eeMvP79mGfk3qn1LzpFAxpHfxS&#xA;W58OQHqL+MdPpzR4jUnre1cfFhJ/mm0p0+3Xyz+cENsRwhttT9JPaGduKH/kXIDmzO8Xm+YQvnKx&#xA;ax816takcQl1KUH+Q7Fk/wCFYZqZiiXrtJPixRPkGTeU7i30TyHrOqa4PrOjakfqdrpJ29e4Ar6g&#xA;bqnGn2h4V6quZOmibdP2vOJkIj6h1/QpWNyfLf5VLG376680Su8dvL8ccMEVFLqhqObbfF8v5cnq&#xA;p9Gns3Bx5eLpFIfL/lDVNahlu0eGz0y3NLnUbtxFAh2NOR6mh7ZiQxmXJ3ep1kMP1c+5MpNb8geV&#xA;xTTIv8TayvS8uVKWMbeKRfakp7/MHM3Hpa5uk1HaOTJsPTH7fmw/zD5o13zDeG71a6a4cV9OPpHG&#xA;D+zGg+FR/mcyxEBwAKSrCl6J53X6lpPlfRuhs9MS4lT+WW7YySD57DNXqZXJ3vY8PRKXefuQ/wCc&#xA;5p5tgiH2YbC1jTxoFJ3+/M/D9LoibJ96I/IiLn58Vtv3VrM/38V/42w5eTCfJkP5X/6T+cFxPXpJ&#xA;fS77k8uY/wCNsxNHvl+bvO09tGB/VfQmbp5B2KuxV2KvCv8AnIr/AJT/APJ//wACOL/qJtcVeX/8&#xA;5e/l7eaX5ztvPiRNe6Pqvow30cjOUjuIECrGSpDKk0SbcSNw3TbFWa+S/wDnHT8gfPfl+18yaFLq&#xA;KWl0o9Wzju1Y28wALwSc43cMhNNzuNxsQcVeieXP+cbvyb0GQTQ+Xor64BqJdQd7se37uUmL/hMV&#xA;el8E4cOI4UpxptTpSmKsH/Mz82tJ8hrZpcaZqGr3l5UpaabCZWSNdjJIxKqoJ2G9T9BxVgf/AENd&#xA;pX/Uk+Y/+kVP+a8Vd/0NdpX/AFJPmP8A6RU/5rxV575g/PG31f8AO3yZ5mtvK2tA6RbX0A0k24N5&#xA;cvcW8qL6EaseQUvVvAVxV6EPJ35i/m9qtle/mBYf4Z8iWEq3Vr5WD87u8kWoVrthQoBWhWimmwX9&#xA;rFXuioiIEVQqKOKqBQADagGKvlHWLabyn58njjFDpd8JIB0rGriSP/goyM53LHgmR3F77DIZ8AP8&#xA;6Kbfnrp4h8yafr1of3Gp2yOky95IafEP+ebJmyxGw8rEVseiz8ylTUW0jzVAo9HXLNGmK7hbmEBJ&#xA;Fr7bD6Dmv1Eak7/sjLcDD+afsKE/MNmj8leSrdBxtzBdSkDoZGdCx/H8czNL9LqtYbzz96v53q3l&#xA;jyZIN4zpgQN25IVDD6K5i6n6nZdjHaXvQfnuWWLyX5QtIDxsJYbidwOj3Hq0ct4lK0HhXMnSgcLr&#xA;taSc8rYFmU4zsVTDy9pbarrun6atf9MuI4WI7K7AMfoG+Amggsq/MPUV1DznqcsZrFHL9XiA6cYA&#xA;Ivhp2JWuafIbk9ToMfBhiPK/m3+dhp+YF4g+zHDbqi+A9JTT8c2uPk8rHkmf/OPig+dLwkV46dKQ&#xA;fA+tCP1YMvJE+Sb/AJIkSfmNdSN8TfV7lgx33Mib/jmNof7z4O87a20w94fQmbl5B2KuxV2Kvnr/&#xA;AJyr1SXSdf8Ayy1WG1kvpdP1lrqOxhr6k7QyW0giSgY8nK8RscVQHmj8+9R8z6DeaFrX5Sa3c6bf&#xA;RmOeI+sD4qyn6t8LKwDKexxV49+Ulp+eflnznFH5M0jUbVL+URy22pW0yWUkQJKm7LKiDgu/NSGG&#xA;/HrQqvvG1+s/VovrRQ3XBfXMVRH6lPi4ct+NelcVVMVdirsVeF+ev+cs/KnlPztdeWn0i6v4tPkE&#xA;N/fwyRjjIBV1iib7fCtDVl3rirXmXVLLVv8AnIv8p9UsJPWsb/StQubWUbcoprKd0ah8VbFXuuKu&#xA;xV4J/wA5BaF9W16y1mNaR38JimI/37B3PzRlA+WajtDHUhLver7Bz3jMP5p+woPV4/8AE35KwXI+&#xA;O98uyhX8fTj+Aj5CKRW/2ODTTcTtDFwZz3S3/HxSXyDKvmTyrqPkyVh9et66hoZam7r/AHsIr/MD&#xA;t8ye2T1OOww0mfwsgl05FrXIG1P8p7GcD/SfLl9Jb3Ctsyw3R5VP+zKrkNJLam/tKHDmvpIW3aEa&#xA;3+U0fH4rvyxdsrjqfqt0eVf+DP3Lg1cOrLsvLw5eH+cPtC2wt/8AEvkG70WMctW0J21DT0/akt3/&#xA;AN6I1HiD8fuaDI6XJWzZ2tg4ZjIOR2Pvec5sHVuxVnX5UQLa6hqXmWZR6Gg2cksZbobmYGOFP9lV&#xA;spzyqLPHj45iPeUlsvUn1KCp5SyzJue7MwzVDm9dOhE+5M/zhkV/zH1hl6AwL9K20an8Rm4x/S8Z&#xA;HkyP/nHj/lJtS/5gv+ZqZHLyRNH/APOPgB86XhIqRp0pHt+/hGY/Z/1n3fqd32//AHA/rD7i+hM3&#xA;DyLsVdirsVfM3/Oat7dWNv5JvbSQw3Vrd3U1vKuzJJGIGRh7hhXFXtP5VfmPpP5geTrPXLF1F0VW&#xA;PU7MH4re6UfvEI68Sd0PdaYqzDFXxF5k1T/nJDyd53vfNWrS6mtrZ34BMkrHT7lJJQiQQxFvSkWR&#xA;DQIi8gN9itQq+3cVeY/nx+b8/wCXWh2C6ZZrf+Ytcma20m3kr6YKBecjqpDPxMiAKCKluuKteXYv&#xA;zY0PU7XVvzC85aOmgPCwurJYIrULduB6cSTyBeSgcjy5VNKU7hV47+fmi/kv5g8ymHy3cW935811&#xA;4xPex3yR6XaoOPO6upKmIN6a04qamtacqclWSoPLlr+e35Q6NoOp22qWui6PeWJntZYpamGwmQM/&#xA;pFgGfjyOKvozFXYqw782vLx1vyTexxryubIfXLcdTWEEuB84ywHvmNq8fFjPlu7HsrUeFnF8pbfP&#xA;9ryP8mtTgOp3/l68+Kz1i3ZPTPQuinkv+yjZvuzT4JUXoe2MNwEx/D+l57cJqnlHzZIsLmO/0m5I&#xA;jkps3A7Ej+V17dwc2nMOi5h6ddeafIs2i65rEd6sTa/YtFeaAUJkGoAfBIpH7PIk8qUrvWu2Y8cR&#xA;ErDbPOZQjAjePI+XcwX8svMdtpHmH6vqFDo+rRmx1FW+yEl2Vz/qt1PhXLskbDXZBscwjrqLVfI3&#xA;nP8Adk+rYy84WOyzQN0rTs6Gh8PozVG4yeoiY6nD/W+woX8xfLtpbXMHmHR15eX9arLbkDaGc7y2&#xA;7eBVq0H0Dpm0xZOIPMzxmEjGXMMPjjkkkWONS8jkKiKCSSTQAAdSctYvR9fgXyx5Rs/KgIGq3jjU&#xA;Nc4kHgSP3MBI/lG5Hjv3zXanJZp2/ZOnsnIfcP0sd8vxiTXtNjbo91App1oZFGYsebuM5qEvcV/5&#xA;pSNJ+YGts1KicLt4KiqP1ZuIcnjo8mU/84/SCPzDqshFQlgzEfKVDkc3JEhaZ/8AOPf/ACmd7/2z&#xA;Zf8Ak/BmP2f9Z936nd9v/wByP6w+4voPNw8i7FXYq7FXgf8AzkzY2eoecfynsL2Fbizu9fWC5t5B&#xA;ySSKSe1R0Ydwykg4qlGt/wDOM3nPylrsvmH8nvMLabI9eelXT0+E78FkZZI5lr0WZdv5icVTbS9Q&#xA;/wCcyAFgudN0Fqjibu6aPY7fERbTDf5JirItC/KLzjrXmCw8x/mnr0Otz6U/raVoFhGYtNgnBqsz&#xA;VCNMy9uS/SRtir1vFXzx/wA5QQvN+Yf5QwovJ5dXlRV23LXNgAN8VTv/AJyM/I3X/wAw7SHUtG1e&#xA;X69pkTfVtCnKi0lPVjGwAKTP05PUHYfCN8VeJ/8AOPnlb8qNc1y88i/mD5c9PzXBJL9TuZLq8t2l&#xA;aM/vbaSOOZEEsdCVoPiWvcfEq9Jf8uPJfkb/AJyV/L208rad+jre8tNSluU9aefk62dwoNZ5JSNv&#xA;DFX0firsVcQCKHcHqMVfLfm/SrnyV5+kFqOCW063mnnsYWbki+4G6H5Zz+fH4c6e60mUanT79RR9&#xA;/wCN0w/O7Sbe7Ol+cbAVs9VhSOdvCQLyj5f5RSq/7HM/DKw80YGEjE8w8qy5LsVeo6RMvn3yqmmu&#xA;wPmvQoj9TZj8V3aL+wSerp/n1OYWow3uHM0Or8GdH6JfZ5pP5d80Lplvc6Pq1p+kNCuzS7sHJVkc&#xA;bepE3VHXMXHlMS7nWaKOYWNpd6YWOr/l95dlbUfL9le3mr0JtH1MxelbMf2lWP7bL2r9+Xz1VjZ1&#xA;+LsiZPrI4fJid3d3N5dS3V1I01xOxeWVtyzMaknMQl3sYiIocgmnkqP1POGiLWlL63b/AIGVW/hh&#xA;hzDTqzWGX9UpZ59kEnnbXmApS/uF/wCBlZf4ZuI8g8lHkzX/AJx+jEnmHVYyaB7BlJ+cqDIZuTGR&#xA;pG/kExHniUA0DWMwI8fjjNPwzG0H958He9u/3H+cP0vonNy8e7FXYq41oaGh7E7iuKvmP/nIryjr&#xA;tuNC1fXPN97qutm9W38qaLpdpDYyC8kKkPHKskjpxdU+P4mB4gda4qnWj/8AOPH5ryafFJrH5t65&#xA;b37jlNb21xdyxxk/siR7lC9PHiPliqN/6F18/wD/AJeDzH/yNuf+yrFVSD/nHbzys0bT/m75lkhD&#xA;AyxpPcIzKD8QVjcuFJHfiflir2H9CWv6E/Q3r3f1f0fq/wBY+tXH1vjSnL63z9fn/l8+WKvnzzjq&#xA;nnvzj+b+i61pXkHWL7RvKCSvpUOoJ+iY7i9kYVnMt2q8YxwQqu7HiK0rTFU/1rzp/wA5ZW6tPY+R&#xA;tGMC1Jh+sC5lA/2N3By/2K4q+c/zC8x/mD5j/NHStRm8tSeXPPvO3jjht45oXuLiKSlvMsc1W5Cg&#xA;XlyKlVGKvo/zYb0/85I/lWb5US9OmaibpIiTGJfqc/MITQleVaYq9xxV2KuxV5l+enlJtU8vx6zb&#xA;Jyu9J5NNTq1s32/+AI5fKuYOuw8UeIcw7vsTVcGTgPKf3sK8gND5q8l6t5KumAuIkNxprt+zVuQp&#xA;7JLSvs2YGnnTndr4OGQyDrzeOXNvPbXEttOhjnhdo5Y26q6GjKfkRmydYp4qitM1K90y/gv7GVoL&#xA;u2YPFKvUEfwI2I7jARaHpdza6b+YNlJq+jqlt5phTnqmkA0FxxoDNBXx7j+O7YGfB1Ds9Br/AA/R&#xA;P6eh7mByRyRyNHIpSRCVdGFCCNiCD0IzDehBtbilk/5Zwmbz1pCDtKz+P2I2f/jXJ4/qDhdoGsEm&#xA;I+YJxca9qU46S3U7ihr9qRj1zcDk8uHov/OPJH+J9SHf6kdv+eqZXl5MZu/JCUR/mFaIRvLDOgqa&#xA;biMt/wAa5iaE/vA9D20L0594fSmbt4t2KuxV2Kvnz/nKmyv77zF+WFlp12dP1C61ow2d+ByME0kt&#xA;sscwWor6bENT2xVhGo/8rpP5kwfl75f/ADLudZ1wBn1Sb0hb2tmirybnJylZ3AIqqr1IFa1AVei/&#xA;8qa/Pn/y7U//AEiH/qpiqtZ/k3+d4u4TefmxdPaB1NwkVsFkMdfiCMzsAxHQkHFXtP1Zfqf1X1JO&#xA;Pp+l6vM+rTjx5c+vLvXxxVWxV2KqM1nZzTwTzQRyT2xZraV0VnjZl4sUYiqkqaGnbFWP6h5B0jUP&#xA;P2ledLp3fUNFtZrXToQeMaNcclklan2j6blQOgqTuaUVZNirsVdiq2WKOaJ4pVDxSKVdGFQVYUII&#xA;98SLSCQbD5m1uwvvy6/MEPbhjbQv61pU/wB7ayEgoT3NKofcVzQZsZxTp7bBkjq9Pvz5H3t/nR5b&#xA;t/rNr5v0oc9M1hVMzr0ExWqsfD1FH/BA5nYZ2HneExJieYeYZcl2KonT9QvtOvIr2xne3u4G5RTR&#xA;mjA/29x3wEK9Jg1fyv5+RY9TePQ/NgHFb2nG1uyBQCT+R/8AMV6Zh5tPe4czSa6eHY+qH3e5jfmD&#xA;ypr+gTmLU7R4lrRJwOUT/wCq42+jrmFKJHN6HBqceUXEsg/KiE2+t3WvTLSx0a0nuJpiPhDFCoWv&#xA;iVLZZgjcnC7WyAYuHrIvM3ZnYuxqzElj4k5tnn3pf/OP0ir51ulPV9PlVfn60LfqGVZeTCfJZ+XU&#xA;5svzR04saMLuWA/ORXi/42zB0prKHpe0Y8Wll/VB/S+n83zw7sVdirsVeFf85Ff8p/8Ak/8A+BHF&#xA;/wBRNrirAfNfku08yf8AOT82m+QNUvND1OKNrzzTqkEhQQvRBN9W4UYlxIquGNObHsDiqeeUv+cq&#xA;rSDztYeSW066vNGF0ulRa9fXPq38jmX0luJ0WNVIZiKqNwO56Yq+l8VdirsVdirsVdirsVdirsVd&#xA;irBvzb8k/wCJfLjTWsfLVdODTWgA+KRafvIv9kBVfcDxzE1eDjjtzDtOytb4OSj9Euf63mX5a6lY&#xA;65o175E1k/uLpHfTnPVH+0VWv7St+8X6c1mDJRp3Pa2m/wArH4/reWa9ol9oer3Wl3ycLi1co3gw&#xA;6q6/5LLQjNkDbpwUvwpdirsVZToP5l+cNFtxaW979YsQKCzu1E8QHgOXxKPZSBkJQBRTvMX5k+Z9&#xA;dsP0dO8Nrp5PKS0tIxCjkGo59Sd96VpjHGByXrZYtk0vQfyLnMfn+FK/31vPH9yh/wDjTK8vJhPk&#xA;hp7kaR+YMtz9kafqzSGnSkNySf8AiOauMuGd9xesEfE09fzofeH1jnRvAOxV2KuxV4V/zkV/yn/5&#xA;P/8AgRxf9RNrirGvPXkP81fIv503P5leS9KPmLT9Tqbuyj3kUSqqywuin1KFkDo6A02qNt1UNoX5&#xA;eaz+Yv5kaR5mn/L0fl/pmnXa6pq9xO8n1m+uI3WRYliZbfjzYVZhEO5LVoCq+n7m5t7W3lubmVIL&#xA;eFTJNNIwRERRVmZmoAAOpOKsG/5Xh+Xf6A/xH9cn/wAPfXP0f+l/qtx9X9atK8uFfTrt6lONdq1x&#xA;VnuKuxVp3SNC8jBEUVZmNAB4knFXz35k/wCcgE8qfmh5wieYa9aHT9OTyzpVlIHWS4Un1U5R+qFf&#xA;nO7OaV4qBQkDFU+/KX/nJ3yt561OPQdQtH0DzBLVYLeWQSQTuOqRy0jIfb7DKPAEnFXs+KuxV2Ku&#xA;xV8/fm/5NufLfmCPzLpAMNndyiTlHt6F2Pi28A9OQ96jwzTazBwS4hyL13ZGsGbH4U95AfMLvNem&#xA;W/5i+T4vMemRj/EWlp6d/ap9qRV3ZQOp7vH9K9cngy26zVac4Z8J5dHiuZbU7FXYq7FXYq7FWW/l&#xA;PdC2/MLRpCaBpXi/5GxPGPxbIT5MZckf+ZFsbfzzrEZ25T+p/wAjVEn/ABtmpyfUXqtBK8Mfc+kP&#xA;Iurrq/lDSb/lyeS2RZT/AMWxj05P+HU5v8E+KALxeuxeHmlHzT3LXFdirsVYD+cOpeV/LOgL5+1r&#xA;Thqd55YDNo8BOwubto4VbeqgggfEQeIqRvTFXjN5+bX/ADkbpvk3T/zPnTS7zyrfSc5dHihbnbwN&#xA;IUjaRx8aq9KBvUalV5Dtir6B0/z95cuPIlp52u7lNP0S5s476Sa4YD0lkUHg1OrhjwovVthir5+T&#xA;zL5p/wCciPOkmh6e02kflbpUiyao6VSa7VT8CSMP25aVVPsoPiPJguKvpL/DXl//AA//AId/R8H6&#xA;C9D6r+juA9H0aceHDpSmKsd/NrzF530PyqJvJOkNrHmG5uI4LeH02kjjQ1aSWWjRgKFXiKsPiIxV&#xA;49F5V/5zF80UOp+YLXy1bNuYkeCORQf5TZxzOf8AZSYqi7f/AJxGuNVZZfPHnvVdck6skZIoe4El&#xA;y90T8+IxVa35X+V/yl/OHyBqGgxSLpWsvd6RfyXEhlf6zLF/ozVNApdmp8IH2cVTv/nJf8o9N1jy&#xA;td+dNFgFl5s0Bfr/ANcth6ck8MHxyc2XjV41HqI/2vhoOuKvTvy48ySeZfIWga9Ka3GoWME1zQcR&#xA;65QCag8PUDUxVkeKuxV2KoLWtHsNZ0u40y/jEtrcoUkXuO4ZT2ZTuD45GcBIUW3DmljmJR5h86xt&#xA;rn5Y+dXhnVpbRtnA2W5tifhde3Ifgds0U4HFOi9jcNbhsc/uLX5p+R7R7dfOflsCbR7795eRxj+6&#xA;dj/eAdlZtmH7LfPbOxZLDz5iYSMZcw8uy5XYq7FXYq7FUfoGofo3XNP1CpAtLmGc08I3DH9WAiwg&#xA;vSfzt0/0PNsd4orHfW0b8x0LR1jP/CquanMN3oOyMl4q7izP/nHvzAJdNv8AQpW/eWri6t1P++5K&#xA;K4HsrgH/AGWbHs/JsYur7fwVKOQddvx+Oj17Ni887FXYqw3zhoflf8z/ACdrnllL8SW/rGznu7b4&#xA;/q95blJgOyuY2K81B8VqDWirzTyn+Sf5w2flifyHrfmvTpPI8yNBSCB5r9bdyWeKJpUjSPlU0LGT&#xA;jXboMVTz80/yCv8AztpekeX9P8zDQPKuiwxxWmjx2RnDPEvBZJJPrMXPimyjjtv1rirO/wAufIOj&#xA;eQ/Kdn5d0ockt15XN0VCvcTsB6kzgV3Y9BU0FB2xVk2KuxV2KvDv+cq/zF81eT/LmhQ+W5JLW81K&#xA;/DPexblRacZFhp39V2FR0KqVOxxVKPNHnq1/Nb8g5vNGjgQ+aPKVxb6vPZLUtb3di3N3H7XptCZH&#xA;Q/R1U4q9oi1vTPMPkH9MxFW07VNMNzudhHNAWZWPsDQ4qkf5DQyw/k75SSRSrHT43AP8r1dT9KsD&#xA;irPMVdirsVdirGvP3kix826K1pLSK9hq9jdU3jkp0P8AkNSjD+IyjUYBkjXVzdDrZaedj6TzDw/y&#xA;p5l1LyPrV1oOvQMdMkcx39q68uJYU9VAftKy9f5lzTAnHKi9RqtPDVYxOH1dP1ID8x/yzGlJ+n/L&#xA;x+t+W7kCUGM8zAG6VPUxmuzduh8TsMeS3n9waOxedZal2KuxV2KuxV7Hrsw8y/k/pOtP8V9o7i2u&#xA;H6njUQmvu37ts1+pi5/ZWThymPSQ+78FiHkrzPP5Z8x2mrRgtHG3C5iH7cL7Ovz7j3AyjBl4JAu7&#xA;1mmGbGYH4e99X2d5bXtpDeWriW2uEWWGQdGRxyU/SDnQxIIsPAzgYkg8wrYWLGfzAbWIPL9xf6f5&#xA;jg8sxWMck95qFxaLeII1WtSrPHTj7Vr4Yq+evyhH/OQWieUxL5E0601rypNLJc2TaxFHZXN0ZH+O&#xA;SJRchgrFaq0rCo3pTFWZS/8AOQ/5ieXwR5z/ACw1K0ij/vb+wc3EI8f91mMf8jsVZJ5F/wCclvy1&#xA;85avbaNp/wCkLfVrtuEFpcWjsxYCpq1uZ0VQBUsxAA3JxV6rirsVdirsVeSfnzaPda1+WKRqGdfN&#xA;tjIdq/BHykfoD+ymKvLvzX8tn8lPPkHnjy6sb+U/MTvaa75bLhVdZQTNGkZO8birIQP3bbfZIGKs&#xA;j/5xv8xad5r/AC78z/l1BeyxR2P1y30i6kUCf9GX/qLDLwYkF43ZqitBVRir6A0vTbXTNMtNNs14&#xA;WljDHbW6eEcKBEH0KuKonFXYq7FXYq7FWIfmJ+Xen+btPqONvq9up+p3lPp9OSm5Qn7uo7g42o04&#xA;yDzdj2f2hLTy74HmP0h4v5f80eYfIOqz6LrNq0lgWpdafJQ0DbepCTVSG/4FvxzT3LGaL0ufTY9V&#xA;ATgd+/8AQUT5o/K7S9csT5i8hyLNC9WuNKBoyt1YRg/ZI/32f9j2GZ2PMC6DJjljlwzFF5PNDNBK&#xA;8MyNFLGSskbgqysNiCDuDmQhZirsVdir1zysrW/5Fa28/wBi4vKwA9wWgTav+WpzD1R2cnQC9RH8&#xA;dC86zXvVvon8h9dkv/KD2ErcpNLmMSV3PoyDmn3NyHyGbnQZLhXc8f25g4M3EP4h9r0nM50rxb/n&#xA;JjUtR1TStE/LXQ2B1vzneJE4JNI7O3YSSyPxqwUMFJ2+yrYq89/Lr/nIn8ztO065sr3yivmPQ/Lb&#xA;pp1zf6MjxvCsQKKWQCRGXjHt8KDxOKvWPJ//ADkv+UfmXhENX/Q963W01VRbEHpT1SWgPy9SuKvR&#xA;rWw0V7r9LWttbNdTx8f0hEkZkeNiGp6qirKSAeuKo3FXYq7FXYq+efz28z+etQ/NHy35b/L7TzqO&#xA;t6Akt/cyPGHt7ee9iMELysxWNDFEWcFzSrDr0xVM/Jn/ADjTFPqS+ZvzT1STzf5jejfVZXZrGE1q&#xA;E4tQyhey0WPtwOKor8z4bbyx5q8q/mf5aML29vPF5d163tipjl0+6kCJT0zx5QS9B48ey4q9pxV2&#xA;KuxV2KuxV2KuxVj/AJx8j6H5rsfq+ox8Z4wfq15HQSxE+B7qe6nb6d8pzYI5BRcvSa3JglceXUdC&#xA;8H1Xy955/LbVfrlu7fVGPFL6IFreVa7JKp+yf8lv9ie+afLgniPk9Xh1ODWQo8+7qPcnL6v+Xv5g&#xA;RLF5giGi6/xCpqCEKrEdPjOxH+TJ07NlmPUOt1PZuTHvH1R+1ivmP8lfN+llpbBF1ey6pLbf3vHt&#xA;WInl/wAByzLjkBdeJMHvLC/spPSvLaW2k/kmRo2+5gMnbJPvKn5eeZ/Ml3HHa2kkNmSPVv5kKwov&#xA;cgmnM/5K4JTAYmQDOPzL1bStN0jT/JGjOHttMo17KKbyrX4SRty5MzP7n2zW58lmnd9k6Ui8kuvJ&#xA;5xmO7t7L/wA45GT6zrwFfT4W3LwrWWn8c2fZ3OXwec9oeUPj+h7PfXtpYWU99eSrBaWsbTXE7mip&#xA;HGCzMx8ABXNo8w8T/J6Gfzt521385dXjaLTir6Z5RhlG8djASJbinYuaj5lx0pirz/8A5xr/ADK8&#xA;peR/y18y+YPMd36c1zqtIrOKjXFw4gRgkMVRXdzUmijuRirKp/yc1r84dTh8z+dNNt/KGjv+8tNM&#xA;soYv0xcIfsve3bJ8NQfscfmAd8Vew+Qvy38peRNMfTvLdq1vBMwedpJZJndxtyJdjT5KAMVZPirs&#xA;VdirsVWR28EckskcapJMwaZ1UAuwUKCxHUhVA37Yql/mnSJ9Z8savo9vcG0n1KyuLSK6FaxPPE0a&#xA;ybUPwlq4q/O3zDoXnv8ALPzINI1VHsbuGWG+jg5iS1uBBKTBPxBMcqc0NOQ8QQDUYq+svyF/O/zf&#xA;5o1648n+d9K+o6/BZjULW7ETQetASlOcLdCVlDK6/Cw7A9VXtdnqFhfLK1ncR3CwSvBM0TBwssZo&#xA;8bEdGU7EdsVRGKuxV2KuxV2KuxVZPBBcQvBPGs0MgKyRSKGVgeoKnYjARaYyINjm8u82fkNo1+z3&#xA;OgTfo25apNs9Xtyfb9uP6KjwGYGXQRO8dne6XtycNsg4h39f2sBk0382fI1RGtyljHU8oqXVrTua&#xA;UdUr7hTmDLDkx9HbDLpNT3cXyKvb/np5qjTjNa2cxHR+Eik/Oj0+4ZDxiiXY2I8jJLNb/NvzlqsL&#xA;QCeOwhcUdbRSjEf67F3H0EZE5SW7D2Zhgbri97C8rdiqW9vPczpBbxtNPKwWOKMFmZj0AA3JwgXy&#xA;YykALOwfTH5T+SZ/K3l1lvQBqd+4mu1BrwAFI46jY8RUn3JzeaTB4cd+ZeK7V1oz5PT9MeX60+82&#xA;+VNJ816HNoeseq+mXJU3UEMrwmVUPL02eMq/EkCoBFflmU6xVj0O1sPLf6E0aGO0tre0NpYQ7+nG&#xA;BHwjB6sQO/fFXhv5S/8AOJdj5S8yWvmLzFqkWs3FlV7TT44CkCXApwmZ3cl+G/FeA3oa7Yq+hcVd&#xA;irsVdirsVdirsVSnzb5n07yv5cv/ADBqSyPY6dH61wsChpOFQDxVioPXxxV4j+Yv5e+Rf+cgF03z&#xA;B5Q8zW8eqWMYt7nkpdvqvIuFltyY5Y3R5CVrsan2OKpB541zVX/NKDyR+WbfXfMlr5ch8syayrAC&#xA;zjWcSXUkkq14tHHEgqN1ZiB8YAKqAt/zC89/lj5Pn/KeGwWw89x3iR+X9TVBLDqEN9cms6GWqery&#xA;egL7U2IDLTFU/svLf/OY2gRfpoa3Ya24/eTaFNIkruBUlfihhRf+eUwxV63+Vf5o2PnvSrgvaSaT&#xA;5h0uT6vreiXFRNbzeNGCsUah4kgdwemKs4xV2KuxV2KuxV2KuxVJ9U8neVdVLNqGk2txI/2pjEok&#xA;P/PRQH/HKpYYS5gOTi1mXH9MiPixu7/JH8vpyTHZy21a/wB1PJQV8PUL5SdDjPRzIdtagdQfgoW/&#xA;5E+Qomq6XU4/lkmoP+ECHANBj82cu3NQe4fBleheT/LOgj/cTp0Nq9OJmALSkeBkcs5H05kY8MIf&#xA;SHX59Xly/XIn8dycZY47sVdirsVdirsVdirsVdirsVdiqB13RNM13RrzR9UhFxp9/C8FzCf2kcUN&#xA;D2I6g9jir4h1LRofr+i+Q/JWl3Ef5q6NqF5Y6hr1jI9qGgt55EidjGwWvpcWeXbiBuTXZV9P/l/+&#xA;X3kv8mPJF5qF7cp9YSL6xr+vTCjysP2ErVgnI8Y0G5J7scVeUaJ5R1r/AJyI8x3vnHzDJdaN5L09&#xA;ZbPytbwkLKZK7zKSCDxZQ0jd2ogNENFWY6P+ZvnL8sLuDy3+bKPe6KzejpHnq2RnikUfYS+Vassl&#xA;O/2vHlu+Kp/+YdpaadPYfm95XkSeTTkQa69mVkj1HRHYesSUqHa3X97G3gtN9sVepQyxTRJNE4ki&#xA;kUPG6mqsrCoII7EYquxV2KuxV2KuxV2KuxV2KvN/Pn526LoOoL5c8vW0nmnzrOeFvoVgeXpt3a6l&#xA;HJYVXq1d/Gg+LFXm/wCU3mjzLqn53axo/wCaF3dW3mq1jWTQtGiuGj0pQF9SQRwI3CV/TZXRmLVA&#xA;JO6jFX0hirsVdirsVdirsVdirsVdirsVdirsVY15Y/Lvyx5b1nW9b0+3J1bX7l7rUL2UhpDzbl6S&#xA;Gg4xg78fHrXbFXgHmTV9W/5yD/MVfKmhyyW/5b+X5RNq1+gK/WWBK8hXu9CsKkbCrkdgq9I/PbVv&#xA;Mv5d/lVZXX5fhdOj0e6t4ZYo4I541sfTkQqyyK/EeoYyX6177nFXl+l/nV+fOr+V1udY/L6283eW&#xA;dTiNXtbeSUTR1KsHWFrlNmXcGIFT1xVinkjzP5ufzyNA/KrSLvQ5LxJ5tb8m63N9a0tFVAxp6qRS&#xA;xiQHiahTuo5UOyr23Rv+citD0C6t/LH5h6JdeSdWhiVYhIpubF41/dq0U0XJihKEA8So/mxV6zof&#xA;mPQNesxe6JqVtqdqafvrSVJlBPZihND7HFUxxV2KtF0DBSwDNXiCdzTrTFW8VUrq7tbS3e4u5o7e&#xA;3jFZJpWCIo8SzEAYq8v81/8AOS35X6HcLYWF5J5j1eVxFBp+jr9ZLyuQqKJaiIksaUVifbFWDech&#xA;/wA5WefVSz03SYfJmg3i/GPrkP1ng1RS4mQtOu37Mca9aGuKvPfLdv8AmP8Al9+Y9l+WvknzFZXu&#xA;s37INclh023aO2Zv3j+pdOjXEwhiq7VIC9AOWwVer/8AOT3kLU30zTvzI8ts8fmfykUkmnjHxyWi&#xA;Nz5kAb+i5LU6cGeuKvS/yr/MPTvP/kqx8w2fFJpB6WoWqmpguowPVjO5NN+S16qQcVQHnX88/wAt&#xA;PJevQ6F5g1Q2+oyqskiRwyyrCkleLStGrBa06dab0pirN7G+s7+zgvbKZLmzuY1lt7iJgyPG45Ky&#xA;sNiCDiqtirsVdirsVdirsVdirsVdirsVSXyp5N8u+VLG4stDtFtYbq5mvbim7PNO5diT4CvFR2UA&#xA;Yqm88EFxBJBPGssEqlJYnAZHRhRlZTsQRsQcVeEaXfWP5FeZde0i/lf/AAJqtrca55bQtUw3VvQX&#xA;OnpyPV+aGOvtvXkcVRv/ADjVoGoXWn6z+Z3mFaa75xuHmjZv91WMbfu1Wu6qzDb/ACFTFWAeUvPP&#xA;5d+Yvzc84/mF521Owj0Kyj/RHl+yvSs3rQVKtLHbUd5BwQsaKRWU4qlnmjzb/wA4ly6l9a0aHWdI&#xA;v60XVPLqyWVAxG6xzOiKB1+GIH8MVeraN5D/ADPfSrbU/JH5tTalpF1GJLT9K2cN+JI2BoTcuTJU&#xA;Hr8Na9fDFUgj86f85Gzec7nyfomoeW9e1DToxLq12kM8cNnzNEjnYlBzb+WMMRvXpiqX/mR51/Oj&#xA;TtW8n6Zrtrp2k+Z21uFdF1uy9SXSp47mOSznWdZS0kZT6whII3UkrQriqc+ek/NXy3oTax56/NOD&#xA;Q9N5iNLXRtMjeaaUgkRQu/py8qAnw7n2VeUJ5p/Ju70671vzJYecvN89ujSWFxr05+pSTD4UQvby&#xA;fulLUG5YfqxVvznY/mNqP5N2nmE+S9E0Dy9az22rabeaKPq13EjFo0lmjZ5jKriRTWobox2rir6x&#xA;8ua/dea/y+sNb0ieO1vtW05J7aaRPVjhuZIv20BXl6cuxFe2Kvmof849+bPJF5rXnTzZ58XR9KRG&#xA;e+1jSzO+o3H1iQcowWWMxvLJQVVmrWnSuKst/KHyX+Uv5j6RqV1Z/wCKLi3s5vq011q+ozK1wXUs&#xA;SPq0ojJofjFO48cVen/lv+TPlf8ALy+1C48uXd+tpqSoJtMuJkltleM/DIgMYkD0JFS52Pyoqx/z&#xA;z/zjT5N85fmFH5x1O7uV5+idR0xOPpXJt1VEBf7SKyIFcDr2IOKpx+RujnQ/LOr6FBK82laTrmpW&#xA;ejtISxW1jm/u+R6+nKZEJ8QcVei4q7FXYq7FXYq7FXYq7FXYq7FXYq7FXmP58/lXcfmLo+gaZb8Y&#xA;/qurwzX1wSA8di0ciXHp16tutB4jFXoSaRpqaOujRwLHpi24s0tUqqrAE9MRrQggBNtjirwPyh/z&#xA;hp5M0/U7q78yXs2sWvrudP09C0EYg5H0/rDoRI78aV4FR88VY1+eP5d6JqX5jeT/AMrPJujWGire&#xA;xHUNRvbe2jWX0eUicpJQvqMIo4JGCs3xMR7Yq+lPJ/lHQvKPl600DQ7cW+n2a0UdWdzu8kjftO53&#xA;J/hir5w/5wz1S+k80+fINSLPqV4ba6u5X3YzRzXAl5HxLz4qzP8A5yc/46v5af8AgR2//E48Vb/5&#xA;yW8mapq2p+TPMA0e68xeXtBu5G13RrJfUmeCVomLLGDV9oiGA+8CpCrC9H8yf85AecPzQCaRpl1p&#xA;/kBLoQfo7UrFbXTxpYajRzJKg5u0J3VSSCdtqYq+h9c8maTe+RNQ8oWdvFZ6dc2EthbQRqFjiV4y&#xA;iFVH8pNcVeUf84e+ZJbz8vL3y3dVW98t30kJibqsNyTKoP8Az1Eo+jFXs/mDy7onmHSpdJ1uyiv9&#xA;OnKmW2mHJGKMHU/QwBxVfouh6PoemQ6Xo9lDp+n24IhtbdBHGtTUmg7kmpPc4qjsVdiq2OOONSsa&#xA;hFJZiFAA5MSzHbuSanFV2KuxV2KuxV2KuxV2KuxV2KuxV2KuxV2KuxV2KvPbjyNqA/Pa087RwLJp&#xA;b6BJpk8okUNFdLciRHKNuQ8TFfh+n3VTPzp+Z2h+VJ0sp7LU9T1WZQ9rpumWFxcySgkj4JAgg6jc&#xA;GSvtirzr/nHX8sfNWha55n86eYrRdIm8yyu9povIPLDFJM09ZCCQv2woXr40xVEf85KadqFzefl7&#xA;c29tLNbWfmK2a7mjRmSJXkjVWkYAhQW2BPfFXtmKuxV2KoS10jSbS5murSygt7m5p9YniiRJJKEk&#xA;c2UAtQseuKovFXYq7FXYq7FXYq7FXYq7FXYq/wD/2Q==</xmpGImg:image>
               </rdf:li>
            </rdf:Alt>
         </xmp:Thumbnails>
         <xmpTPg:NPages>1</xmpTPg:NPages>
         <xmpTPg:HasVisibleTransparency>False</xmpTPg:HasVisibleTransparency>
         <xmpTPg:HasVisibleOverprint>False</xmpTPg:HasVisibleOverprint>
         <xmpTPg:MaxPageSize rdf:parseType="Resource">
            <stDim:w>350.000000</stDim:w>
            <stDim:h>350.000000</stDim:h>
            <stDim:unit>Pixels</stDim:unit>
         </xmpTPg:MaxPageSize>
         <xmpTPg:PlateNames>
            <rdf:Seq>
               <rdf:li>Cyan</rdf:li>
               <rdf:li>Magenta</rdf:li>
               <rdf:li>Yellow</rdf:li>
               <rdf:li>Black</rdf:li>
            </rdf:Seq>
         </xmpTPg:PlateNames>
         <xmpTPg:SwatchGroups>
            <rdf:Seq>
               <rdf:li rdf:parseType="Resource">
                  <xmpG:groupName>Default Swatch Group</xmpG:groupName>
                  <xmpG:groupType>0</xmpG:groupType>
               </rdf:li>
            </rdf:Seq>
         </xmpTPg:SwatchGroups>
      </rdf:Description>
   </rdf:RDF>
</x:xmpmeta>
                                                                                                    
                                                                                                    
                                                                                                    
                                                                                                    
                                                                                                    
                                                                                                    
                                                                                                    
                                                                                                    
                                                                                                    
                                                                                                    
                                                                                                    
                                                                                                    
                                                                                                    
                                                                                                    
                                                                                                    
                                                                                                    
                                                                                                    
                                                                                                    
                                                                                                    
                                                                                                    
                           
<?xpacket end="w"?>
	</metadata>
<g>
	<g>
		<path style="fill:#BC3F25;" d="M86.3016,46.4131c1.7467-13.4176-1.2703-22.3799,34.457-26.8352s85.5867-6.9867,122.4255-1.2703
			c25.4061,5.3194,23.2625,30.0109,23.7123,36.3624c0,8.8921,1.0586,25.7237-11.8562,32.922
			c-12.4384,6.6162-20.6954,0.4234-25.6707,13.1794c-4.2344,12.9677-10.3212,88.8683,0.7939,123.8017
			c3.7184,11.5958,4.6159,12.9589,7.6218,17.7843c1.5735,2.5259,18.6311,35.9919-19.3721,35.8861
			c-36.68-2.1436-71.7722-24.4533-103.6886-87.3334S86.3016,46.4131,86.3016,46.4131z"/>
		<g>
			<path style="fill:#6B463F;" d="M205.6648,267.0104c-9.6182,0-21.9807-5.7254-35.7537-16.5577
				c-1.2267-0.8424-16.3602-11.5389-32.7461-37.232c-9.7884-15.3482-17.9768-32.8928-24.3372-52.1468
				c-7.9378-24.0289-13.0366-50.8072-15.1546-79.5905l-0.0618-1.2315c-0.5018-9.9964-1.0706-21.3267,6.527-30.6496
				c8.4667-10.3892,25.9519-16.611,53.4549-19.0211c23.6767-2.0748,41.105-3.3607,54.8143-3.3607
				c12.7317,0,21.5707,1.1436,27.8163,3.5991c6.8563,2.6955,10.9124,7.1396,12.4001,13.5861
				c2.4944,10.8089,2.6814,18.696,0.5894,24.8211c-2.5378,7.4292-8.3941,12.2943-17.9039,14.8732
				c-14.8757,4.034-15.6646,14.6456-17.2361,35.7865c-0.2554,3.4388-0.5199,6.9945-0.8718,10.8538
				c-2.4631,26.9877-2.9107,87.7837,3.7355,106.3095c3.5815,7.9249,3.426,16.5392-0.4097,22.4984
				C217.4299,264.3603,212.1515,267.0104,205.6648,267.0104z"/>
			<path style="fill:#FFECC9;" d="M212.4073,29.0863c23.8661-0.0002,35.6911,4.0063,38.3986,15.739
				c4.2873,18.5782,2.7523,32.3928-15.9846,37.474s-16.9374,20.4307-19.478,48.2716c-2.5406,27.8408-2.8846,88.5243,3.8639,107.1819
				c5.6946,12.5179,1.5064,27.392-13.5422,27.392c-8.24,0-19.7335-4.4553-34.65-16.1974c0,0-62.2449-42.0788-71.481-167.6007
				c-0.9946-20.3005-3.3875-43.5079,58.2222-48.9067C180.4574,30.4505,198.4825,29.0864,212.4073,29.0863 M212.4092,25.3548v3.7315
				l-0.0008-3.7315c-13.7793,0.0001-31.252,1.2887-54.9779,3.3678c-14.811,1.2979-26.4966,3.6208-35.7247,7.1014
				c-8.4965,3.2047-14.7159,7.3261-19.0135,12.5996c-8.0507,9.8786-7.4629,21.5895-6.9443,31.9217l0.059,1.1838l0.0022,0.0456
				l0.0034,0.0456c2.1292,28.9358,7.2578,55.8647,15.2437,80.0388c6.409,19.4009,14.664,37.0863,24.5357,52.5649
				c16.3485,25.6342,31.5774,36.5975,33.2104,37.7303c7.2923,5.731,14.1945,10.0711,20.5169,12.9008
				c5.9613,2.6682,11.4608,4.021,16.3457,4.021c7.1432,0,12.9786-2.954,16.4313-8.318c4.1631-6.4675,4.3787-15.7298,0.5728-24.2061
				c-2.8259-7.947-4.6527-25.2716-5.1466-48.8249c-0.412-19.6483,0.1913-41.8718,1.5369-56.6173
				c0.3536-3.8749,0.6185-7.4387,0.8747-10.8851c1.6811-22.6148,2.9213-30.6143,15.8638-34.1242
				c5.0726-1.3756,9.2587-3.4421,12.4421-6.142c3.127-2.6521,5.3942-5.9927,6.7388-9.9289
				c2.2097-6.4688,2.039-14.6808-0.537-25.8436c-1.6362-7.0903-6.0637-11.965-13.5355-14.9026
				C234.4359,26.5396,225.3808,25.3548,212.4092,25.3548L212.4092,25.3548z"/>
		</g>
		<g>
			<path style="fill:#BC3F25;" d="M133.129,172.0978c-0.6503-0.0002-1.6509-0.2976-2.7235-1.7145l-0.0237-0.0323
				c-11.5669-16.3494-13.8482-31.7372-13.7252-41.767c0.1338-10.9071,2.9915-17.8653,3.1131-18.1561l1.4866-3.5563l0.8725,3.7544
				c3.6485,15.6979,13.1423,27.1293,13.2378,27.2428l0.7381,0.8785l-0.8161,0.8064c-7.6191,7.5295-3.1602,20.4599-1.4815,25.3276
				c0.1529,0.4434,0.288,0.8352,0.3931,1.1611c1.1445,1.8178,1.4456,3.6904,0.7821,4.919c-0.3842,0.7115-1.077,1.1363-1.8529,1.1363
				C133.1293,172.0978,133.1291,172.0978,133.129,172.0978z"/>
			<path style="fill:#FFECC9;" d="M120.9173,110.9075c3.758,16.1699,13.497,27.7614,13.497,27.7614
				c-8.998,8.8921-2.5009,24.2152-1.3497,27.907c1.5324,2.3355,1.1587,4.278,0.0647,4.278c-0.4742,0-1.0838-0.3651-1.7319-1.2213
				C109.3787,138.5102,120.9173,110.9075,120.9173,110.9075 M121.5953,102.8356l-2.9732,7.1125
				c-0.1254,0.3-3.0726,7.4746-3.2093,18.6206c-0.0798,6.5096,0.8179,13.0534,2.6682,19.4497
				c2.3054,7.9694,6.1024,15.7249,11.2855,23.0511l0.0232,0.0327l0.0242,0.032c1.3812,1.8246,2.7828,2.2075,3.7154,2.2075
				c1.2408,0,2.3427-0.6689,2.9476-1.7894c0.8722-1.6154,0.5924-3.8522-0.7406-6.0381c-0.1003-0.3045-0.2202-0.6523-0.3533-1.0384
				c-1.6088-4.6653-5.8825-17.058,1.18-24.0374l1.6321-1.6129l-1.476-1.7568c-0.0923-0.1103-9.4093-11.3665-12.9786-26.7243
				L121.5953,102.8356L121.5953,102.8356z"/>
		</g>
		<g>
			<path style="fill:#BC3F25;" d="M188.8244,207.0902c-7.0589,0-17.6796-7.8949-24.6478-14.671
				c-9.4995-7.8508-23.3525-27.6757-23.6187-43.0846c-0.0878-5.0751,1.3246-9.1765,4.2016-12.2135
				c-2.2344-2.3059-7.9828-8.7412-11.8285-17.5238c-4.4426-10.1454-7.008-25.361,5.9987-40.2341l0.0642-0.0733l0.0748-0.0626
				c1.3333-1.1134,2.5372-1.6319,3.7891-1.6319c1.2719,0,2.5021,0.5415,3.7605,1.6553c0.9455,0.8773,3.1245,3.2309,5.8833,6.2105
				c5.8185,6.2846,15.5568,16.8029,18.2376,18.109l0.0782,0.0381l0.0721,0.0486c3.6769,2.4778,8.3867,4.0171,12.2916,4.0171
				c2.9572,0,5.218-0.8835,6.3662-2.4878c1.2669-1.7698,1.3097-4.5546,0.1239-8.055c-0.6987-1.635-7.4676-3.7547-12.9109-5.4594
				c-6.6548-2.0841-14.192-4.4444-19.131-7.6978c-6.8697-3.1116-13.0883-7.7896-17.5185-13.1804
				c-4.2748-5.2013-6.3823-10.4967-5.7819-14.5281c0.5647-3.7926,3.4148-6.2071,8.0251-6.7988l0.1234-0.0159l0.1241,0.009
				c5.7564,0.4133,10.4159,1.3175,14.9223,2.1919c6.2596,1.2147,12.7325,2.4708,22.4175,2.4708
				c2.3276,0,4.8035-0.0733,7.3586-0.2177c19.6983-1.1137,30.492-6.4269,36.2906-9.2813c0.7655-0.3769,1.4288-0.7032,2.0461-0.9903
				c0.9207-0.4936,1.8154-0.7438,2.6596-0.7438c1.7917,0,3.2402,1.1215,3.9745,3.0768c1.8403,4.9002-0.7176,16.3035-12.1654,26.3131
				l-0.0486,0.0425l-0.0525,0.0372c-8.4099,5.9388-18.7435,9.345-28.3508,9.3453c-5.6449,0.0001-10.5122-1.1688-13.7053-3.2917
				c-2.6-1.6679-3.7112-3.9615-3.0308-6.2817c1.0888-3.7139,6.4677-6.3077,13.0808-6.3077c3.9887,0,8.3279,0.9183,12.582,2.6597
				c0.6447-0.4953,1.8809-1.9927,1.6252-3.4183c-0.2144-1.1939-1.9523-4.0364-13.4329-4.6644
				c-16.2015,0.1849-20.0622,1.2613-27.0646,3.2139c-0.4757,0.1327-0.966,0.2694-1.4753,0.4101
				c-2.1617,0.93-6.992,3.3799-7.0649,6.7136c-0.0459,2.102,1.8255,5.5302,11.0008,9.9234
				c5.5713,2.6678,11.2123,4.3463,16.1892,5.8272c5.9999,1.7854,11.1818,3.3273,14.8772,6.0885
				c4.204,3.141,5.9346,7.4664,5.4451,13.6112c-0.0741,2.1725-0.1646,4.9691-0.27,8.2331
				c-0.7479,23.1325-2.3033,71.249-4.2623,84.7368C195.5069,205.7133,191.8131,207.0902,188.8244,207.0902z"/>
			<path style="fill:#FFECC9;" d="M228.2962,44.1331c5.4723,0,5.162,14.8185-9.0097,27.2097
				c-9.2327,6.5199-19.4077,9.1176-27.6332,9.1176c-5.4968,0-10.1225-1.1596-13.0165-3.0837
				c-6.2137-3.9861-0.957-10.3098,9.3612-10.3098c3.6566,0,7.9482,0.7939,12.5912,2.7674c0.0028,0.0001,0.0056,0.0001,0.0085,0.0001
				c1.3778,0,10.148-9.4902-11.7985-10.6786c-17.5461,0.1985-20.7552,1.4216-28.9788,3.6918
				c-7.2646,3.0964-14.9261,9.9639,3.8109,18.9355c18.737,8.9715,37.2358,6.6294,35.8067,24.3343
				c-0.6087,17.7842-2.3024,77.6473-4.5255,92.891c-0.4732,4.9247-2.8098,6.8379-6.0882,6.8379
				c-6.6226,0-17.0902-7.8042-23.8169-14.3539c-13.2323-10.9034-32.1281-42.2905-18.4723-54.3584c0,0-31.0166-29.1111-6.6691-56.952
				c0.9777-0.8164,1.948-1.3428,2.9917-1.3429c0.9057-0.0001,1.8666,0.3961,2.9363,1.3429
				c2.9641,2.7523,20.2719,22.495,24.4004,24.5063c3.9208,2.6423,8.837,4.2295,12.9867,4.2295
				c6.1578,0,10.6281-3.4945,7.6557-12.2218c-1.6937-4.2873-22.8125-7.3042-32.6044-13.8146
				c-20.3249-9.1567-30.5667-30.2756-15.72-32.181c13.6316,0.9787,20.6164,4.6657,37.4285,4.6657
				c2.2818,0,4.744-0.0679,7.4291-0.2197c22.4685-1.2703,33.3455-7.86,38.8237-10.4006
				C226.9627,44.3287,227.6676,44.1331,228.2962,44.1331 M228.2962,41.6455c-1.0413,0-2.1228,0.2942-3.2154,0.8744
				c-0.6228,0.2902-1.3118,0.6293-2.0397,0.9877c-5.7195,2.8154-16.3658,8.0558-35.8114,9.1552
				c-2.5322,0.1431-4.9845,0.2157-7.2887,0.2157c-9.5654,0-15.9784-1.2444-22.1803-2.4479
				c-4.5422-0.8814-9.2391-1.7928-15.07-2.2115l-0.2481-0.0178l-0.2467,0.0317c-5.1367,0.6593-8.4525,3.5202-9.0971,7.8492
				c-0.652,4.3787,1.5536,10.0286,6.0511,15.5011c1.3919,1.6937,2.955,3.3184,4.6559,4.8493
				c-0.3147-0.0541-0.6306-0.0811-0.9477-0.0811c-1.5385,0.0001-3.0388,0.6285-4.5866,1.9211l-0.1497,0.125l-0.1284,0.1468
				c-10.6353,12.1612-12.7799,26.5296-6.202,41.5518c3.5253,8.0507,8.6243,14.1779,11.2852,17.0544
				c-2.584,3.1681-3.8479,7.2612-3.7625,12.2054c0.1201,6.9551,3.0776,15.7111,8.3277,24.6553
				c4.5297,7.717,10.3938,14.9358,15.7035,19.3347c3.8611,3.7504,8.2114,7.2526,12.2593,9.8687
				c5.2558,3.3969,9.7036,5.1192,13.2197,5.1192c2.3817,0,4.4178-0.8073,5.8882-2.3346c1.4839-1.5413,2.3821-3.7925,2.6702-6.6912
				c1.9668-13.5961,3.522-61.7019,4.27-84.8376c0.1052-3.2531,0.1953-6.0421,0.2695-8.212
				c0.5113-6.5071-1.433-11.3086-5.9428-14.6781c-3.873-2.8937-9.1532-4.4649-15.2672-6.2842
				c-4.9328-1.4678-10.5237-3.1315-16.0067-5.7568c-9.3662-4.4847-10.3193-7.6302-10.2943-8.7745
				c0.039-1.787,2.4236-3.9118,6.2352-5.5646c0.4807-0.1329,0.9445-0.2623,1.3954-0.388c7.1199-1.9854,10.7-2.9837,26.7034-3.168
				c9.0512,0.5008,11.9414,2.4816,12.2215,3.5761c0.1421,0.5552-0.2638,1.302-0.6781,1.8081
				c-4.1582-1.6053-8.3811-2.4492-12.2908-2.4492c-7.2751,0-13.0115,2.8941-14.2744,7.2017
				c-0.8328,2.8404,0.4954,5.7097,3.5527,7.6786c3.3947,2.2498,8.4993,3.4886,14.377,3.4886c9.858,0,20.453-3.4893,29.0682-9.5732
				l0.1054-0.0744l0.0971-0.0849c6.5315-5.711,9.7401-11.4271,11.2815-15.2167c1.9537-4.803,2.4018-9.3482,1.2294-12.4701
				C232.5218,43.0972,230.6008,41.6455,228.2962,41.6455L228.2962,41.6455z M183.1812,106.4301
				c-3.6705,0-8.114-1.4579-11.5965-3.8047l-0.1443-0.0973l-0.1564-0.0762c-0.4548-0.2216-2.0781-1.3129-7.3142-6.6475
				c-3.4691-3.5343-7.3987-7.7786-10.5561-11.1889c-1.0526-1.1369-1.9986-2.1587-2.8222-3.0412
				c2.0541,1.3064,4.2116,2.4796,6.4361,3.4922c5.0849,3.3212,12.6645,5.6949,19.3609,7.792c3.173,0.9937,6.17,1.9323,8.4727,2.8438
				c2.8082,1.1116,3.5248,1.7836,3.6759,1.9591c0.7153,2.1595,1.2649,5.0322-0.0011,6.8007
				C187.3103,106.1744,184.655,106.4301,183.1812,106.4301L183.1812,106.4301z"/>
		</g>
		<g>
			<path style="fill:#6B463F;" d="M154.6915,130.4603c-4.1908,0-7.2458-1.6617-9.0796-4.9392
				c-2.9898-5.6779-3.7292-11.2239-3.7807-11.634c-0.0976-0.6515-1.6638-11.5527,1.955-15.7618
				c0.9959-1.1582,2.273-1.7455,3.7961-1.7455c2.2578,0,4.9532,1.2988,8.2403,3.9707c2.1579,1.6848,3.9881,3.1495,5.6027,4.442
				c10.1671,8.1376,10.3613,8.293,24.1346,8.4937l3.0346,0.0442l-2.3711,1.8943
				C185.4448,115.8467,167.0133,130.4603,154.6915,130.4603z"/>
			<path style="fill:#FFECC9;" d="M147.5822,97.4683c1.8241-0.0004,4.2742,1.061,7.5539,3.7267
				c16.0641,12.5442,14.0527,12.9412,30.4079,13.1794c0,0-18.7705,14.9976-30.8526,14.9976c-3.4558,0-6.364-1.2267-8.1299-4.3823
				c-2.9691-5.6397-3.6521-11.2505-3.6521-11.2505S140.4424,97.4699,147.5822,97.4683 M147.5833,95.2916v2.1767V95.2916h-0.0003
				h-0.0012c-1.8284,0.0004-3.4263,0.7353-4.6211,2.1253c-3.878,4.5114-2.4107,15.2669-2.2075,16.6208
				c0.0703,0.5488,0.8534,6.2128,3.8824,11.9661l0.013,0.0246l0.0136,0.0243c2.012,3.5955,5.4801,5.4961,10.0294,5.4961
				c12.6989,0,31.4206-14.842,32.2114-15.4738l4.7417-3.7887l-6.0688-0.0884c-13.4003-0.1952-13.4003-0.1952-23.4701-8.255
				c-1.6131-1.2911-3.441-2.7541-5.6136-4.4509C153.0107,96.6657,150.0964,95.2916,147.5833,95.2916L147.5833,95.2916z"/>
		</g>
		<g>
			<path style="fill:#6B463F;" d="M170.4689,180.2146c-5.5022,0-9.9747-7.6712-15.1535-16.5537l-0.8277-1.4183
				c-0.218-0.3741-5.2957-9.1997-3.0703-15.1288c0.8008-2.1335,2.4134-3.626,4.7933-4.4366
				c9.2278-3.7772,26.9838-14.0834,35.8708-24.2552l2.3434-2.6822l-0.444,3.5338c-0.2305,1.8354-5.7515,45.0007-15.6956,55.6067
				C175.6732,178.4698,173.116,180.2146,170.4689,180.2146z"/>
			<path style="fill:#FFECC9;" d="M192.9012,119.138c0,0-5.6105,44.6724-15.4554,55.0465
				c-2.5157,3.4748-4.8037,4.9417-6.9768,4.9417c-5.1424,0-9.6469-8.2059-15.0418-17.433c0,0-8.5746-14.7144,1.1644-17.996
				C166.4366,139.6746,184.115,129.1946,192.9012,119.138 M195.9486,112.3417l-4.6866,5.3642
				c-8.7624,10.0292-26.2949,20.2049-35.4344,23.9521c-2.6484,0.9115-4.525,2.6646-5.4291,5.0733
				c-1.0428,2.7781-0.8059,6.3624,0.7039,10.6534c1.0628,3.0202,2.3882,5.3085,2.4441,5.4044
				c0.2795,0.478,0.5551,0.9507,0.8284,1.4196c5.5683,9.5506,9.9664,17.0943,16.094,17.0943c3.0057,0,5.8385-1.8741,8.6572-5.7281
				c4.3249-4.6601,8.3176-15.5436,11.8689-32.3539c2.6217-12.41,4.0518-23.699,4.0659-23.8116L195.9486,112.3417L195.9486,112.3417z
				"/>
		</g>
		<g>
			<path style="fill:#6B463F;" d="M190.7035,76.2757c-0.9402,0-1.6322-0.0714-1.7859-0.0887
				c-1.6614-0.1224-4.1135-1.4843-4.0683-3.2877c0.0395-1.5785,1.7282-2.4039,5.0191-2.4529
				c0.2044-0.003,0.4039-0.0046,0.5985-0.0046c4.4658,0,6.8077,0.7522,7.16,2.2999c0.1306,0.5744,0.0683,1.6731-1.8166,2.5779
				C194.1638,76.1099,192.1243,76.2757,190.7035,76.2757z"/>
			<path style="fill:#FFECC9;" d="M190.4666,71.5302c6.3151-0.0002,7.3476,1.6204,4.8727,2.8083
				c-1.4565,0.6991-3.3127,0.849-4.636,0.849c-0.9926,0-1.6854-0.0843-1.6854-0.0843c-2.3451-0.1529-5.9646-3.4666,0.8666-3.5686
				C190.083,71.5316,190.2777,71.5302,190.4666,71.5302 M190.4676,69.3534v2.1767l-0.0004-2.1767
				c-0.2002,0-0.4057,0.0015-0.6152,0.0047c-1.6554,0.0247-2.9149,0.2222-3.8505,0.6036c-1.9763,0.8058-2.2251,2.3037-2.2403,2.9103
				c-0.0626,2.4939,2.8812,4.2287,5.0542,4.3988c0.2157,0.0238,0.9275,0.0932,1.8879,0.0932c2.2314,0,4.1081-0.3578,5.578-1.0633
				c2.6622-1.2778,2.57-3.0837,2.4069-3.8008c-0.2898-1.2735-1.3548-2.1628-3.1652-2.6433
				C194.2645,69.5228,192.5636,69.3534,190.4676,69.3534L190.4676,69.3534z"/>
		</g>
	</g>
	<path d="M87.4152,243.7142c0.1582-0.6035,0.2549-1.2669,0.2958-1.9908c0.0409-0.7244,0.008-1.5296-0.0915-2.4197
		c-0.1431-1.7655-0.2841-3.0728-0.4858-3.9236c-0.269-0.9111-0.3973-1.3693-0.6413-2.2909
		c-0.3112-0.9223-0.786-1.8909-1.2361-2.8508c-0.4084-0.871-0.9983-1.7437-1.7533-2.4913c-0.7304-0.7233-1.1661-1.16-1.3328-1.2084
		c-0.7171-0.4169-1.0743-0.6297-1.7859-1.0639c-0.889-0.3964-1.3323-0.5999-2.2163-1.0177
		c-0.7517-0.2742-1.3117-0.4165-1.6814-0.4158c-0.8373,0.6707-1.4917,1.1431-2.3189,1.8286
		c0.4971,2.3212,0.634,3.4391,1.2709,5.6929c-0.7488,1.3146-0.727,1.8718-1.4331,3.214c-0.9557-2.881-1.3787-4.3516-2.1061-7.3506
		c-9.363,2.009-18.726,4.0181-28.0891,6.0271c0.6052-1.8396,0.925-2.7538,1.5976-4.5698
		c8.6001-1.5942,17.1994-3.1912,25.7979-4.7911c-0.3673-1.9405-0.5271-2.9218-0.7968-4.9062
		c0.9268-1.5308,1.1162-1.8478,2.0964-3.3415c0.3465,3.4702,0.6667,4.8941,1.3117,8.2322c0.8014-1.3508,1.4313-2.1793,2.2757-3.5
		c0.2059-0.3413,0.6008-0.5586,1.1828-0.6543c0.5364-0.0882,0.9898-0.0737,1.3607,0.0413c0.4199,0.0997,0.63,0.1488,1.0502,0.2456
		c1.0416,0.5273,1.5647,0.783,2.6144,1.279c0.6622,0.3409,1.181,0.6131,1.4499,0.8258c0.3746,0.2963,0.8214,0.8209,1.3521,1.4484
		c0.5305,0.6272,1.1473,1.3847,1.8174,2.2515c0.6994,0.9047,1.2468,2.1126,1.6905,3.5902c0.3109,1.0355,0.5437,2.1165,0.7033,3.2487
		c0.1596,1.1322,0.2334,2.4197,0.2429,3.8693c-0.0231,1.0897-0.0259,1.635-0.0139,2.7258c0.0011,0.4558-0.0052,0.895-0.0202,1.3169
		c-0.0149,0.4218-0.1005,0.8582-0.1564,1.2485c-0.0827,0.5774-0.1624,1.3362-0.3522,2.1663
		c-0.1897,0.8301-0.4311,1.7712-0.7151,2.8291c-0.1913,0.5369-0.285,0.8063-0.4685,1.3469
		c-0.5195,0.5217-0.7778,0.784-1.2917,1.3113C86.8094,247.2666,86.9855,246.0749,87.4152,243.7142z M80.5897,254.134
		c-6.7275,3.904-13.4549,7.8079-20.1824,11.7119c0.2436-1.0476,0.37-1.569,0.6317-2.6065c0.2715-0.5087,0.4083-0.7621,0.6836-1.2669
		c0.2241-0.5308,0.3372-0.7953,0.5656-1.3225c0.1945-0.4952,0.2928-0.7421,0.4912-1.2342c0.2482-0.7319,0.4487-1.3983,0.5987-2.0016
		c0.15-0.6034,0.2653-1.1468,0.3435-1.6304c0.0782-0.4837,0.132-1.1113,0.1669-1.8794c0.0349-0.7681,0.0413-1.6806,0.0284-2.7359
		c-0.0087-0.3144-0.0185-0.6913-0.0285-1.1309c-0.0121-0.5272-0.0169-0.7907-0.0238-1.3179
		c-0.0203-0.5213-0.0292-0.782-0.0445-1.3034c-0.0109-0.4604-0.0154-0.6907-0.0224-1.1513
		c-0.0736-0.7625-0.1819-1.5082-0.3264-2.2401c-0.1446-0.7321-0.3166-1.4633-0.5162-2.1965
		c1.0296-2.3451,1.5678-3.4983,2.6872-5.762c1.0757,1.4166,1.624,2.1033,2.7383,3.4346c1.0638,1.4214,1.6064,2.111,2.7102,3.4487
		c1.377,1.9013,2.0854,2.816,3.5351,4.5755c0.6373,0.8523,0.96,1.2711,1.613,2.0944c0.7016,1.0067,1.0582,1.5009,1.782,2.4715
		c0.5357-0.2915,0.8036-0.4372,1.3393-0.7286c-2.5882-6.3799-4.6065-12.7824-6.1896-19.4791
		c0.5787-1.5246,0.8791-2.2791,1.5008-3.7713c1.9867,9.5201,4.895,18.4447,9.0267,27.2508
		c-0.2649,1.5243-0.3852,2.2921-0.6009,3.8379C82.0454,257.2152,81.5432,256.2016,80.5897,254.134z M74.8422,253.8204
		c-0.691-0.9373-1.4181-1.8887-2.1793-2.8579c-0.7615-0.9695-1.563-1.9362-2.4049-2.905c-0.8538-0.9592-1.276-1.45-2.1096-2.4544
		c-0.705-0.7944-1.0543-1.1994-1.7458-2.0249c0.0251,0.7606,0.0352,1.5298,0.0294,2.3088
		c-0.0059,0.7786-0.0327,1.5724-0.0634,2.3678c-0.0304,0.7897-0.069,1.5246-0.134,2.1904c-0.0651,0.6654-0.1461,1.4097-0.239,2.2343
		c-0.1993,1.108-0.2935,1.6644-0.4705,2.7816c-0.0916,0.5603-0.2324,1.1811-0.4189,1.8633
		c-0.1866,0.6824-0.4169,1.4042-0.6878,2.1667C67.893,257.6009,71.3676,255.7106,74.8422,253.8204z M79.5201,297.606
		c0.0124-1.0388,0.0235-1.5569,0.0553-2.5901c-0.0293-0.5683-0.0425-0.8521-0.0657-1.4191
		c-0.0454-0.3009-0.1616-0.7433-0.3447-1.3275c-0.2877-0.84-0.4277-1.2608-0.6998-2.1038c-0.125-0.4498-0.2679-0.8556-0.4292-1.2166
		c-0.1614-0.3615-0.344-0.7224-0.5467-1.0825c-0.2031-0.3607-0.4354-0.7315-0.6967-1.1142
		c-0.2617-0.383-0.5789-0.8224-0.9502-1.3219c0.1116-1.6645,0.18-2.4925,0.3416-4.1389c0.6249,0.318,0.9378,0.4737,1.5644,0.7785
		c2.3224,1.2309,3.4915,1.7997,5.8369,2.8479c1.3779,0.7118,2.0696,1.0515,3.4566,1.6994c1.5766-1.5613,2.3649-2.3419,3.9415-3.9032
		c0.4452-0.4409,0.7614-1.6917,1.0353-3.7018c0.2724-1.9994,0.0371-3.4993-0.7692-4.5439c-0.5216-0.6757-1.0851-1.1268-1.7012-1.354
		c-0.6164-0.2275-1.1146-0.2071-1.4948,0.0725c0.1552,0.3841,0.2271,0.9252,0.2231,1.627c0.0437,0.4462,0.0667,0.6695,0.115,1.1163
		c0.0628,0.4736,0.091,0.9091,0.0838,1.3063c-0.0074,0.3969-0.0513,0.7458-0.1326,1.0455
		c-0.0964,0.5837-0.3164,1.0379-0.6661,1.3589c-0.1938,0.1779-0.3463,0.3061-0.4583,0.3861
		c-0.1121,0.0798-0.206,0.1313-0.2825,0.1555c-0.3507,0.0998-0.5262,0.1492-0.8779,0.2468
		c-0.1995,0.0887-0.3931,0.1254-0.5798,0.1086c-0.1873-0.0165-0.4018-0.0784-0.6428-0.187
		c-0.865-0.5481-1.5372-1.1537-2.0131-1.8016c-0.8589-1.1695-1.2625-2.6516-1.1866-4.3976c0.0813-0.4109,0.1227-0.6159,0.207-1.0253
		c-0.2678,0.0273-0.4018,0.0405-0.6701,0.0662c-0.6214-0.0625-1.2668-0.3784-1.9276-0.9552
		c-0.5229-0.475-0.783-0.7156-1.3004-1.2029c-0.2987-0.3722-0.4472-0.5594-0.7426-0.9363c-0.1511-0.3238-0.226-0.486-0.3747-0.8113
		c-0.0732-0.3136-0.1093-0.4704-0.1804-0.7843c-0.0037-0.4783-0.0044-0.7172-0.0035-1.1946
		c0.0341-0.2383,0.0897-0.4911,0.1663-0.7563c0.0764-0.2657,0.1897-0.5559,0.3396-0.8686c0.3283-0.3367,0.4927-0.5047,0.822-0.8399
		c0.3893-0.2626,0.7903-0.3763,1.2024-0.3449c0.4595,0.1112,0.6892,0.1651,1.1484,0.2697c0.6001,0.2182,0.9002,0.3242,1.5004,0.5299
		c0.6475,0.3452,0.9719,0.5137,1.6215,0.8424c0.3707,0.182,0.6849,0.4234,0.9448,0.7243c0.2526-1.0408,0.3841-1.5583,0.6573-2.5872
		c-0.0599-0.4029-0.0889-0.6044-0.145-1.0073c-0.1332-0.7632-0.3075-1.3431-0.5319-1.7412c-0.7434-1.289-1.1049-1.943-1.8064-3.2698
		c0.2233-1.5425,0.3473-2.3087,0.6194-3.8297c1.0585,2.2052,1.6177,3.2837,2.7912,5.3908c0.6312,1.1335,1.0063,2.3117,1.1292,3.5647
		c-0.0711,0.7267-0.1039,1.0912-0.1636,1.822c-0.1418,0.5994-0.2109,0.9001-0.3455,1.5034
		c-0.1645,0.5936-0.3601,1.0532-0.593,1.3778c0.6686-0.0617,1.271-0.0685,1.8087-0.0202c0.5374,0.0483,1.06,0.1642,1.5682,0.3475
		c0.5078,0.1832,1.0135,0.4353,1.5186,0.7529c0.5051,0.3176,1.0643,0.7083,1.6802,1.1666c0.201,0.1852,0.3018,0.2773,0.5038,0.4606
		c0.1797,0.178,0.2697,0.2666,0.4503,0.4431c0.2068,0.2731,0.3538,0.7329,0.4489,1.382c0.0948,0.6487,0.0728,1.6068-0.0448,2.8859
		c-0.2145,1.4088-0.3118,2.1177-0.486,3.5436c-0.1414,0.8401-0.2087,1.2618-0.3364,2.108c-0.1248,0.553-0.1858,0.8301-0.3051,1.3859
		c1.4971-2.1719,2.2549-3.2495,3.789-5.3871c1.5391-1.5241,2.3087-2.2862,3.8478-3.8104c0.0442,0.3943,0.0673,0.5916,0.1154,0.9864
		c-0.0155,0.5727-0.0214,0.8597-0.0293,1.4346c-0.033,0.3559-0.1531,0.6423-0.3629,0.8583c-0.182,0.2136-0.273,0.3204-0.4548,0.5342
		c-0.0192,0.3475-0.0281,0.5215-0.0446,0.8698c0.2576,0.5131,0.3884,0.769,0.6536,1.279c0.1203,0.1271,0.1806,0.1905,0.3015,0.3169
		c0.201,0.1885,0.3018,0.2823,0.504,0.4692c0.2201,0.2487,0.3307,0.3725,0.5528,0.6191c0.1724,1.5052,0.2725,2.2599,0.5008,3.7719
		c-1.7312-1.6529-2.5745-2.5089-4.2121-4.2779c-5.4425,5.6995-10.885,11.3989-16.3275,17.0984
		c-0.0051-0.0277-0.0076-0.0415-0.0127-0.0692c-0.656,0.6864-0.984,1.0296-1.64,1.716
		C79.7975,298.4147,79.704,298.1453,79.5201,297.606z M80.694,292.1549c0.0107,0.3349,0.0166,0.5024,0.0295,0.8378
		c1.7406-1.7733,2.6115-2.6594,4.3542-4.4303c-0.5194-0.2549-0.7788-0.3845-1.2969-0.6481
		c-0.5249-0.2721-0.7869-0.4104-1.3102-0.6917c-0.2162-0.1441-0.4846-0.2892-0.8049-0.4365
		c-0.3203-0.1472-0.6926-0.2858-1.1164-0.4169c-0.6547-0.3058-0.9817-0.4621-1.6348-0.7819
		c0.2011,0.3634,0.3829,0.7573,0.5448,1.1838c0.1618,0.4263,0.2906,0.8967,0.3873,1.4129c0.1329,0.6643,0.2016,0.9965,0.3439,1.6608
		C80.3828,290.769,80.4835,291.231,80.694,292.1549z M125.4321,291.7234c-0.2295-0.5794-0.5356-1.1724-0.9144-1.7816
		c-0.379-0.6096-0.8548-1.2419-1.4241-1.9025c-1.0912-1.3408-1.9211-2.304-2.5377-2.8673c-0.6973-0.5733-1.0428-0.8642-1.727-1.4542
		c-0.7316-0.5525-1.605-1.0463-2.4499-1.5401c-0.7612-0.4448-1.6628-0.7922-2.6058-0.9412
		c-0.9054-0.1431-1.4556-0.2309-1.5986-0.1729c-0.7307,0.0885-1.0975,0.1292-1.8335,0.2034
		c-0.8388,0.2049-1.2602,0.3031-2.1068,0.4909c-0.6752,0.2216-1.144,0.4347-1.4012,0.6475
		c-0.2137,0.9915-0.3166,1.4892-0.5148,2.4879c1.628,1.4911,2.4597,2.2128,4.1551,3.6073c0.2073,1.4518,0.3225,2.1792,0.5765,3.6357
		c-2.2707-1.722-3.3813-2.6249-5.5457-4.5116c-5.4172,6.9047-10.8343,13.8094-16.2515,20.7141
		c-0.5947-1.7594-0.8762-2.641-1.4081-4.4063c5.1143-6.1503,10.2265-12.3023,15.3365-18.4562
		c-1.3251-1.2627-1.9759-1.9101-3.2524-3.2361c-0.1944-1.6772-0.2765-2.5139-0.4113-4.1817
		c2.1396,2.3587,3.2492,3.4914,5.5384,5.6592c-0.186-1.4872-0.2669-2.2294-0.4047-3.7094c-0.0442-0.3754,0.1115-0.766,0.4643-1.1729
		c0.3252-0.3752,0.649-0.6253,0.9705-0.7523c0.3473-0.1667,0.5206-0.2507,0.8666-0.4196c1.0155-0.2023,1.5206-0.3097,2.5252-0.537
		c0.6491-0.1221,1.1571-0.2134,1.4653-0.2056c0.4181,0.0107,1.0252,0.1538,1.7415,0.3302c0.7161,0.1763,1.5644,0.4049,2.5119,0.692
		c0.9863,0.2988,2.04,0.9246,3.171,1.8296c0.7927,0.6342,1.5571,1.3532,2.3003,2.1593c0.7431,0.806,1.5142,1.7886,2.333,2.9441
		c0.5944,0.8857,0.8983,1.3256,1.5196,2.1988c0.2569,0.3671,0.4994,0.7256,0.7263,1.0754c0.2269,0.3498,0.413,0.7526,0.5934,1.0996
		c0.2639,0.5078,0.6393,1.1766,0.975,1.9595s0.6983,1.6867,1.0979,2.7125c0.1698,0.5468,0.2566,0.8201,0.4341,1.3664
		c-0.0689,0.7176-0.1015,1.0768-0.163,1.7964C127.0127,294.9578,126.4623,293.8841,125.4321,291.7234z M125.6887,301.0211
		c-3.5277,7.2306-7.0553,14.4612-10.583,21.6918c-0.3471-0.9398-0.5154-1.4102-0.8415-2.3519
		c-0.0412-0.5536-0.0606-0.8302-0.0966-1.3831c-0.092-0.5392-0.1366-0.8088-0.2228-1.3476c-0.0977-0.4933-0.1453-0.7399-0.238-1.233
		c-0.1767-0.7031-0.3582-1.3262-0.5486-1.8695c-0.1904-0.5434-0.3781-1.0194-0.5652-1.4269
		c-0.1871-0.4075-0.4692-0.9054-0.8396-1.4932c-0.3703-0.5877-0.8389-1.2623-1.3968-2.0264
		c-0.1702-0.2245-0.3736-0.4938-0.6096-0.8084c-0.2831-0.3771-0.4235-0.5663-0.702-0.9457
		c-0.2865-0.3665-0.4286-0.5503-0.7107-0.919c-0.247-0.3273-0.3697-0.4915-0.6132-0.8206
		c-0.4544-0.5044-0.9284-0.9725-1.4246-1.4054c-0.4964-0.433-1.0145-0.8459-1.556-1.2405
		c-0.3578-2.3554-0.5065-3.5305-0.7446-5.8705c1.6109,0.2944,2.4147,0.4233,4.0171,0.6461
		c1.6071,0.3204,2.4096,0.4622,4.0103,0.7105c2.1169,0.4781,3.175,0.6852,5.2858,1.0374c0.9688,0.2127,1.4532,0.3124,2.4216,0.4987
		c1.104,0.2904,1.6566,0.4269,2.7624,0.6828c0.2911-0.5613,0.4366-0.8419,0.7277-1.4033
		c-5.3463-2.8667-10.4772-6.2406-15.1707-10.0895c-0.3036-1.456-0.4418-2.1835-0.6914-3.6359
		c6.702,5.5421,13.746,10.1013,21.5512,13.9368c0.5815,1.3153,0.8858,1.9709,1.5217,3.2765
		C128.5114,302.3993,127.5621,301.9569,125.6887,301.0211z M120.7661,304.4771c-1.0613-0.2523-2.1587-0.4885-3.292-0.7117
		c-1.1339-0.2233-2.298-0.4147-3.4952-0.5771c-1.2021-0.1476-1.8046-0.231-3.0113-0.4175
		c-0.9921-0.1178-1.4892-0.1831-2.4849-0.3272c0.4129,0.5326,0.8183,1.0829,1.2159,1.6519
		c0.3974,0.5688,0.7861,1.1642,1.1723,1.7639c0.3831,0.5948,0.7328,1.1582,1.0244,1.6881c0.2913,0.5297,0.6108,1.1283,0.9625,1.7951
		c0.4111,0.9441,0.6227,1.4152,1.0582,2.3552c0.216,0.4732,0.4231,1.0235,0.6246,1.6494c0.2016,0.6261,0.3877,1.3102,0.5617,2.0513
		C116.9902,311.7579,118.8781,308.1175,120.7661,304.4771z M157.1012,310.4645c-7.639-1.0769-14.8392-2.8316-22.1149-5.3961
		c-1.1725,3.0735-2.345,6.147-3.5176,9.2205c0.5921-0.0959,0.8873-0.1459,1.4758-0.2499c1.9142-0.4855,2.8599-0.7496,4.726-1.3179
		c0.6864-0.169,1.4121-0.3178,2.1765-0.4492c0.9564-0.1541,1.4324-0.2368,2.3797-0.4128c1.677-0.1197,2.5114-0.1969,4.1698-0.3849
		c1.6574,1.6301,2.5189,2.4272,4.3064,3.9775c-0.7877,0.855-1.187,1.2794-1.9966,2.1215c-1.4026,1.6384-2.5104,3.191-3.2814,4.6848
		c-0.2438,0.6084-0.3663,0.9124-0.6123,1.5201c-0.2886,0.9565-0.4334,1.4347-0.724,2.3907
		c-0.0425,0.3951-0.0635,0.5927-0.1052,0.9879c0.0028,0.3038,0.0044,0.4557,0.0081,0.7596
		c-0.0581,0.3296-0.0871,0.4944-0.145,0.8241c0.0445,0.5069,0.0674,0.7603,0.115,1.2672c0.0511,0.4921,0.0773,0.7382,0.1314,1.2303
		c0.1318,0.5003,0.1988,0.7504,0.335,1.2503c-0.8967-0.435-1.3416-0.657-2.2243-1.1098c-0.2043-1.011-0.3024-1.5167-0.4906-2.5283
		c-0.1158-0.6826-0.172-1.024-0.2807-1.7068c0.0037-0.8123,0.0071-1.2184,0.017-2.0301c0.1363-1.1177,0.2062-1.6762,0.3493-2.7928
		c0.0738-0.3891,0.1108-0.5836,0.1851-0.9727c0.1024-0.3745,0.1536-0.5617,0.256-0.9362c0.1582-0.4622,0.2372-0.6933,0.3949-1.1556
		c0.2008-0.4284,0.3009-0.6427,0.5002-1.0716c0.6062-0.9325,0.9059-1.4002,1.4988-2.3387
		c-0.6395,0.0364-0.9597,0.0522-1.6011,0.0788c-0.5861,0.0225-1.2035,0.0907-1.8557,0.2034
		c-0.6369,0.0962-0.9563,0.142-1.5966,0.2287c-0.4227,0.077-0.8924,0.2184-1.4115,0.4212
		c-0.9128,0.2838-1.7508,0.5619-2.5113,0.8382c-0.7602,0.2761-1.4494,0.6235-2.0249,0.9185
		c-0.7416,0.3802-1.5091,0.742-2.1356,1.1465c-0.6269,0.405-1.175,0.804-1.6421,1.2015c-1.1778-1.8094-1.7403-2.7232-2.8125-4.5641
		c1.7007-4.1215,3.4015-8.243,5.1023-12.3644c-1.0615-0.4358-1.589-0.6616-2.6371-1.1288c-0.6236-1.3128-0.9218-1.972-1.4909-3.2939
		c8.6282,3.9262,17.3164,6.6059,26.6559,8.2289C155.6164,308.8553,156.1022,309.3965,157.1012,310.4645z M164.3778,312.0918
		c-0.5191,0.3082-0.9648,0.709-1.291,1.2204c-0.1809,0.7009-0.2721,1.0512-0.4562,1.7517c-0.0547,0.4963-0.082,0.7445-0.1367,1.2408
		c-0.058,0.5266-0.058,1.1194,0.0033,1.7783c0.0614,0.6594,0.1698,1.4035,0.3292,2.2309c0.1594,0.8273,0.2736,1.5668,0.3382,2.2183
		c0.0646,0.6515,0.0734,1.2347,0.0232,1.7484c-0.0352,0.8976-0.0524,1.3465-0.0857,2.2441c0.0177,0.5904,0.027,0.8855,0.0464,1.4758
		c-0.0229,0.2407-0.0343,0.361-0.0572,0.6017c-0.0172,0.1807-0.0258,0.271-0.043,0.4516c-0.0974,0.2224-0.1462,0.3336-0.2442,0.5559
		c-0.0121,0.1256-0.0754,0.2585-0.1892,0.3979c-0.1143,0.14-0.345,0.3971-0.6957,0.7702c-0.8983,1.0512-2.5293,1.9992-4.9055,2.7633
		c-1.9284,0.6201-3.4181,0.8483-4.424,0.7208c-0.7083-0.0898-1.1927-0.4245-1.4486-0.9967
		c-0.0567-0.3141,0.4057-0.5141,1.3824-0.6165c0.4684,0.0097,0.8753-0.0038,1.2185-0.039c0.3432-0.0351,0.6078-0.1072,0.793-0.2136
		c1.2499-0.5222,1.8693-0.7912,3.0964-1.3445c0.7628-0.5913,1.2382-1.6813,1.4384-3.2587
		c-0.3948-2.0788-0.5789-3.1197-0.9207-5.2034c-0.2974-1.5858-0.349-2.9426-0.1847-4.0673c0.0748-0.5119,0.213-1.0276,0.412-1.547
		c0.1989-0.5188,0.4142-0.9926,0.6457-1.4203c0.2312-0.4273,0.4561-0.7937,0.6754-1.0969c0.2188-0.3032,0.3975-0.4995,0.538-0.5891
		c1.2663-1.1228,1.8862-1.6933,3.0988-2.8506c-3.1875-0.1798-4.7721-0.3354-7.9115-0.7731
		c-0.9809-1.0861-1.4575-1.6361-2.3831-2.7484c5.2273,0.8636,10.4325,1.234,15.7224,1.3409
		c0.8441,0.9431,1.2764,1.4095,2.1617,2.3305c-0.8566,0.0111-1.2844,0.0119-2.1387,0.0042c-0.2066-0.0001-0.31-0.0003-0.5165-0.0015
		c-0.7039-0.0039-1.3808,0.0569-2.033,0.1842C165.5829,311.4828,164.9609,311.7457,164.3778,312.0918z M182.9158,310.1501
		c-2.5911,0.3765-3.8862,0.5206-6.4693,0.7231c0.0746,8.0423,0.1493,16.0845,0.2239,24.1268
		c-1.3544-0.818-2.0196-1.2378-3.3254-2.0967c0.0811-5.2531,0.1621-10.5063,0.2431-15.7595
		c0.0049-0.316,0.0073-0.4739,0.0122-0.7899c0.0049-0.316,0.0073-0.4739,0.0122-0.7899c0.0066-0.4264-0.0296-0.7313-0.1074-0.9157
		c-0.1356-0.6447-0.3824-1.1411-0.6961-1.4908c-0.4375-0.4876-1.0632-0.9671-1.874-1.3877c-0.8106-0.4205-1.671-0.6315-2.5937-0.636
		c-0.2919,0.0137-0.4378,0.02-0.7296,0.0315c-1.1167-0.9482-1.6616-1.4314-2.7243-2.4136c0.451-0.011,0.6766-0.0179,1.1278-0.0342
		c0.4505-0.0088,0.6758-0.0145,1.1265-0.0286c0.3391,0.0064,0.5087,0.0089,0.8482,0.0124c0.5362,0.0809,0.8049,0.1194,1.3439,0.1926
		c0.4895,0.0231,0.9302,0.1179,1.323,0.2862c0.3927,0.1682,0.7329,0.3667,1.0198,0.5963c0.6064,0.3842,1.2025,1.0816,1.8029,2.0923
		c0.2031,0.3434,0.3056,0.5147,0.5121,0.8568c0.1772,0.3815,0.2667,0.572,0.4471,0.9525c0.1515,0.3744,0.2278,0.5614,0.3819,0.935
		c-0.3795-2.0733-0.5604-3.1115-0.9042-5.1905c-0.0687-1.1089-0.1019-1.6635-0.1664-2.7727
		c0.0063-0.4061,0.0094-0.6092,0.0157-1.0153c0.0062-0.4012-0.0258-0.7503-0.0947-1.0475c0.431,0.2721,0.6481,0.4068,1.0855,0.6733
		c0.0867,0.4758,0.1305,0.7136,0.2193,1.189c0.0804,0.288,0.1209,0.4319,0.2024,0.7197c0.1092,0.1956,0.164,0.2933,0.2742,0.4886
		c0.257,0.2457,0.3863,0.368,0.6466,0.6118c0.1299,0.0954,0.195,0.143,0.3255,0.2379c1.3893-0.1089,2.0849-0.1761,3.477-0.3362
		C181.0819,308.9832,181.6849,309.3795,182.9158,310.1501z M212.9409,300.8661c-2.618,1.2678-3.9353,1.8508-6.58,2.918
		c2.1752,7.3564,4.3505,14.7128,6.5257,22.0692c-1.6926-0.2223-2.5289-0.3508-4.1802-0.6401
		c-1.0642-4.0302-2.1283-8.0605-3.1925-12.0907c-0.0813-0.3081-0.4192-0.5907-0.784-0.8832
		c-0.3399-0.2725-0.8017-0.56-1.3683-0.6597c-0.1907-0.0263-0.2859-0.0396-0.476-0.0669c-0.8587-0.052-1.6471,0.0362-2.3747,0.2703
		c-0.53,0.1706-0.9978,0.6132-1.4166,1.3306c-0.0801,0.3323-0.1206,0.4984-0.2025,0.8307c0.0525,0.3609,0.0788,0.5413,0.131,0.9023
		c0.1816,0.4145,0.2728,0.6216,0.4561,1.0353c-0.493,0.3033-0.7404,0.4534-1.2372,0.7507
		c-0.2198-0.2356-0.3292-0.3537-0.5471-0.5905c-0.1287-0.109-0.1928-0.1635-0.3209-0.2729
		c-0.7165-0.6655-1.4146-1.0789-1.9877-1.2914c-0.6247-0.2316-1.7722-0.3521-3.3777-0.2823
		c-0.5282,0.0544-0.792,0.0798-1.3188,0.1271c-1.2128,0.2663-2.2694,0.7582-3.1912,1.4905
		c-0.9222,0.733-1.5377,1.6438-1.8407,2.7512c-0.0385,0.3987-0.058,0.5981-0.0976,0.9969c0.0711,0.8437,0.5486,1.5508,1.3887,1.9341
		c0.8154,0.3719,1.9277,0.4829,3.1634,0.3815c-0.6801-0.5424-1.0415-1.0786-1.0996-1.5966
		c-0.0721-0.6417,0.2461-1.2831,0.9407-1.9323c0.6943-0.6489,1.4526-1.0675,2.2876-1.2604c1.4316-0.3307,2.6084-0.0356,3.5647,0.909
		c0.287,0.4083,0.5082,0.737,0.6622,0.9892c0.1535,0.2517,0.2851,0.5283,0.3941,0.8301c-0.0216,0.1895-0.0325,0.2842-0.0546,0.4737
		c-0.2633,0.8101-0.8158,1.5157-1.6606,2.1024c-0.8448,0.5867-1.8653,1.0183-3.0509,1.2805
		c-0.8802,0.1946-1.7962,0.2881-2.7402,0.2775c-0.9443-0.0107-1.6925-0.0743-2.2464-0.179
		c-1.2638-0.3193-2.5352-0.9167-3.4201-1.7899c-0.7285-0.7188-1.1151-1.8398-1.1858-3.0352
		c0.0461-0.6162,0.0687-0.9243,0.1128-1.5404c0.1066-0.7552,0.3442-1.4657,0.7083-2.1346c0.3638-0.6682,0.8229-1.2626,1.3758-1.7849
		c0.5529-0.5223,1.1522-0.9638,1.8008-1.3261c0.6482-0.3622,1.3322-0.6154,2.0585-0.762c1.3879-0.2802,2.7594-0.3094,4.142-0.088
		c0.6728,0.2317,1.0117,0.3445,1.6947,0.5637c0.4914,0.2999,0.739,0.4482,1.2379,0.7413c-0.1375-0.0904-0.1263-0.2969,0.0313-0.6209
		c0.1573-0.3233,0.402-0.6805,0.7316-1.0742c0.3289-0.3929,0.7091-0.7772,1.1389-1.1542c0.4296-0.3768,0.8625-0.6995,1.2517-0.8504
		c1.0533-0.4085,2.1296-0.4132,2.9293-0.1429c0.5544,0.2992,0.8338,0.4467,1.3969,0.7373c0.2746,0.1597,0.4124,0.2391,0.6892,0.3967
		c0.5108,0.4004,0.7683,0.5988,1.2877,0.9921c-0.6379-2.4026-0.9569-3.6039-1.5948-6.0065
		c-7.4217,2.591-14.7675,4.4062-22.5485,5.524c-1.2325-0.7945-1.8359-1.2027-3.0166-2.0387
		c10.952-1.2617,21.1778-4.0261,31.3237-8.3183C210.7067,300.4135,211.4442,300.5754,212.9409,300.8661z M231.7673,289.3288
		c3.9923,6.3909,7.9846,12.7818,11.9769,19.1728c-0.7621,0.0923-1.1416,0.1347-1.8975,0.2121
		c-0.5627-0.2055-1.1356-0.3958-1.7172-0.5696c-0.5815-0.1737-1.224-0.257-1.8086-0.342c-0.534-0.0776-1.2475-0.1813-2.0581-0.2088
		c-0.8109-0.0275-1.7362,0.0064-2.7661,0.0862c-1.1225,0.087-2.1543,0.2007-3.095,0.3553c-0.9403,0.1546-1.8525,0.368-2.7366,0.6405
		c-0.8844,0.2726-1.7898,0.6261-2.7164,1.0575c-0.9275,0.4318-1.9507,0.9522-3.0723,1.5508
		c-2.2792-0.4956-3.3958-0.7777-5.5809-1.4036c0.8695-1.2919,1.2934-1.9422,2.1193-3.2502c0.8647-1.271,1.2865-1.9109,2.109-3.1988
		c1.0043-1.4214,1.4934-2.1387,2.4448-3.5843c-0.1619,0.0412-0.3782,0.075-0.6462,0.1005
		c-0.2688,0.0256-0.5943,0.0069-0.9312-0.0092c-0.4548-0.0217-1.0688,0.1062-1.7757,0.3151
		c-0.7074,0.209-1.5307,0.5197-2.4719,0.921c-0.942,0.4017-1.8116,0.6848-2.6045,0.8561c-0.7928,0.1714-1.5134,0.2463-2.1595,0.2307
		c-0.2009,0.0018-0.4129-0.0298-0.6348-0.093c-0.2219-0.0631-0.4761-0.1424-0.7615-0.2384c-1.4973-0.36-2.2345-0.5565-3.6849-0.9798
		c8.8916-3.959,16.9736-8.7907,24.7629-14.6232c1.5932-0.1213,2.399-0.2018,4.0274-0.4049
		C234.3742,287.3365,233.5095,288.0178,231.7673,289.3288z M232.0888,313.4137c-0.3506,1.0485-1.1067,1.9267-2.2555,2.6028
		c-0.4929,0.2901-0.9928,0.4994-1.4967,0.629c-0.5045,0.1297-0.9754,0.1883-1.4109,0.1772
		c-0.4362-0.0114-0.8167-0.097-1.1418-0.2541c-0.3254-0.1573-0.5512-0.3878-0.679-0.6881
		c-0.1465-0.3443-0.1675-0.7068-0.0651-1.0854c0.1024-0.3787,0.276-0.7426,0.5203-1.0925c0.2442-0.3497,0.5371-0.6736,0.8796-0.9731
		c0.3421-0.2992,0.6798-0.5466,1.0141-0.7418c0.4748-0.2772,0.9572-0.4929,1.448-0.6479c0.4904-0.1549,0.9506-0.2388,1.3804-0.2495
		c0.4291-0.011,0.8098,0.0453,1.1381,0.1707c0.3285,0.1255,0.5649,0.3277,0.7052,0.6067
		C232.2768,312.1682,232.2674,312.6835,232.0888,313.4137z M229.0353,291.3249c-3.2588,2.3115-6.6358,4.4565-10.1178,6.4158
		c0.6522-0.0526,0.9796-0.082,1.6371-0.1476c0.5962-0.0551,1.2628-0.0101,2.0061,0.1302c1.0431,0.0855,1.5692,0.1204,2.6303,0.1736
		c1.1317,0.1444,1.7031,0.2076,2.8568,0.3149c-0.2363,0.5154-0.356,0.7728-0.5983,1.287c-0.5778,1.0458-0.8731,1.5668-1.4765,2.6044
		c-0.4538,0.8526-0.685,1.2779-1.1559,2.1258c-0.6138,1.2676-0.9299,1.8998-1.5805,3.1599c0.8473-0.2453,1.2718-0.373,2.1226-0.6385
		c0.5605-0.1454,0.8413-0.2202,1.4037-0.3745c0.5714-0.1628,1.2173-0.2906,1.9406-0.3892c0.7228-0.0983,1.5182-0.1779,2.3887-0.2437
		c1.2363-0.0242,1.8596-0.0466,3.1156-0.1128c0.2397,0.0104,0.5285,0.0231,0.8673,0.0358c0.3652,0.0439,0.5483,0.065,0.9156,0.1054
		c0.3169,0.0121,0.6206,0.0389,0.9116,0.0821c0.2617,0.0515,0.3928,0.0768,0.6556,0.1265
		C234.717,301.095,231.8762,296.2099,229.0353,291.3249z M267.3469,270.7913c0.0656-2.312,0.1561-4.5038,0.2935-6.5939
		c0.1374-2.0891,0.2517-3.9818,0.3837-5.6924c0.132-1.7108,0.244-3.1964,0.3756-4.4688c0.1316-1.2722,0.2128-2.2379,0.2809-2.9037
		c-0.7161-0.2685-1.0741-0.4028-1.7902-0.6713c-2.4127,6.0019-5.3014,11.4732-8.8907,16.8479
		c-1.4695,0.3177-2.2025,0.4559-3.6616,0.6917c5.3029-7.3805,9.1487-15.0258,11.9091-23.6844
		c1.2755-0.7349,1.9096-1.1232,3.1669-1.9414c-0.5548,2.2071-0.8738,3.2995-1.5921,5.4545
		c8.3175,2.7722,16.635,5.5443,24.9525,8.3166c-0.9195,0.5012-1.3806,0.7442-2.3049,1.2151
		c-0.8969,0.241-1.3453,0.3561-2.2418,0.5757c-1.3206,0.3871-2.5297,0.8503-3.6321,1.3945
		c-1.1024,0.5443-2.1111,1.1224-3.0289,1.7411c-0.918,0.619-1.7574,1.2529-2.5204,1.9089
		c-0.7628,0.6559-1.4474,1.2944-2.0512,1.9217c-1.3882,1.5482-2.5968,3.127-3.6426,4.7783
		c-0.4565,0.0701-0.6846,0.1036-1.1401,0.1675c-0.4452,0.0797-1.0559,0.1964-1.8295,0.3401
		C269.6097,270.3328,268.5961,270.5441,267.3469,270.7913z M272.3986,252.4722c-0.258,1.1743-0.3842,2.447-0.4839,3.7272
		c-0.0872,1.1193-0.1793,2.5171-0.2186,4.1312c-0.0393,1.6143,0.0259,3.3971,0.164,5.3734
		c0.2569-0.2303,0.7631-0.6639,1.5078-1.3223c0.7451-0.6588,1.6881-1.3901,2.8239-2.2234c1.1352-0.8328,2.4289-1.6933,3.8789-2.608
		c1.4495-0.9144,3.0067-1.7102,4.6835-2.3902c-1.1937-0.4476-2.4968-0.9467-3.9091-1.4962
		c-1.4117-0.5492-2.7559-1.0618-4.0291-1.5383C275.049,253.4643,274.1655,253.1336,272.3986,252.4722z M264.9877,248.2345
		c0.5477-1.5518,0.7999-2.336,1.2595-3.9178c0.3455-0.8842,0.9493-1.6041,1.8254-2.1825c0.8761-0.5785,2.0967-1.0619,3.6682-1.4792
		c0.8971-0.1208,1.3458-0.1855,2.2434-0.3238c-2.3401-0.022-3.5085-0.0497-5.8406-0.1383
		c-2.0726-0.4672-3.1089-0.7009-5.1815-1.1681c0.3945-0.2814,0.5911-0.4244,0.9828-0.7154c0.8639,0.0225,1.2961,0.0313,2.161,0.0441
		c0.3692-0.1074,0.5537-0.1622,0.9226-0.274c0.3401-0.2289,0.5097-0.3449,0.848-0.5802c0.1838-0.9745,0.2675-1.4639,0.4182-2.4459
		c1.1728-0.9184,1.7525-1.3985,2.8949-2.4004c-0.2475,2.1428-0.4095,3.2079-0.8076,5.3189
		c8.6711,1.6354,17.3421,3.2708,26.0132,4.9062c-1.2854,1.2217-1.9375,1.8116-3.2567,2.9493
		c-3.1502-0.7102-5.8167-1.3112-7.9999-1.8034c-2.1827-0.492-3.9955-0.8911-5.436-1.1978c-1.4403-0.3066-2.555-0.55-3.3423-0.728
		c-0.7876-0.1781-1.3766-0.3026-1.7671-0.3736c-0.3899-0.0709-0.6338-0.1178-0.7309-0.1398
		c-0.0963-0.0218-0.1584-0.0359-0.1863-0.0422c-0.8931-0.0313-1.8127,0.2485-2.7676,0.81
		c-0.9543,0.5612-1.6505,1.3258-2.1079,2.3112c-0.1922,0.6743-0.2922,1.0102-0.5,1.6795
		C266.9839,247.144,266.3206,247.5222,264.9877,248.2345z M287.3697,219.8573c0.5299,0.5299,0.9893,1.1485,1.3777,1.8548
		c0.3893,0.707,0.5831,1.4491,0.5831,2.2256c0,1.7671-0.8482,3.4099-2.5439,4.9286c-1.8722,1.4491-3.7628,2.1728-5.6705,2.1728
		c-0.9183,0-1.7662-0.1588-2.5439-0.4768c-0.7765-0.3179-1.4655-0.8655-2.0668-1.6429c-1.0598-1.2721-1.5897-2.6498-1.5897-4.1336
		c0-1.8366,0.7419-3.4266,2.2256-4.7698c0.7072-0.7419,1.5023-1.28,2.385-1.6161c0.8834-0.3356,1.8199-0.5035,2.8087-0.5035
		c1.0252,0,1.8904,0.177,2.5967,0.5299c0.3893,0.106,0.7865,0.2915,1.1925,0.5563
		C286.5306,219.2479,286.9455,219.5394,287.3697,219.8573z M284.8787,223.1431c-0.6-0.9183-1.1658-1.5545-1.6957-1.908
		c-0.5299-0.3526-1.0774-0.5648-1.6429-0.6359c-0.3179,0-0.6177,0.1151-0.901,0.3444c-0.2821,0.2302-0.5117,0.5217-0.6887,0.8746
		c-0.1764,0.3535-0.3179,0.7419-0.4239,1.1658c-0.106,0.4239-0.1591,0.8479-0.1591,1.2718c0,1.2721,0.2651,2.1731,0.795,2.703
		c1.0249,1.0598,2.3316,1.5897,3.9216,1.5897c1.5897,0,2.3847-0.6177,2.3847-1.8548
		C286.4687,225.7753,285.9388,224.5922,284.8787,223.1431z M308.6735,215.9886l-6.7303,8.4263
		c-0.8828,1.0956-1.6429,2.1023-2.2788,3.0206c-0.6359,0.9192-1.1476,1.7315-1.5369,2.4379h-7.2073l4.0807-4.7166l4.8223-4.6635
		l9.7512-8.2143h2.7027L308.6735,215.9886z M273.167,218.1088v-33.5457l3.1797-3.2857v5.8296h32.1679l-2.703,3.0738h-17.9652
		c-0.7064,0.3179-1.3513,0.6887-1.9344,1.1127c-0.5827,0.4239-1.0152,0.9192-1.2982,1.484
		c-0.3529,0.707-0.5117,1.3431-0.4771,1.9077c0.0355,0.5657,0.2478,1.0334,0.6359,1.4045c0.3893,0.3708,0.9456,0.6095,1.6696,0.7155
		c0.7246,0.106,1.6161,0.0355,2.6763-0.212l0.5299,1.2718c-1.2007,0.3893-2.2605,0.9192-3.1797,1.5897
		c-0.7419,0.6717-1.3863,1.484-1.9344,2.4379c-0.5472,0.9538-0.7155,2.2259-0.5035,3.8156
		c0.2119,1.4136,0.6808,2.4561,1.4045,3.1266c0.7245,0.6717,1.4573,1.113,2.1992,1.3249c0.8132,0.2478,1.7844,0.3179,2.9146,0.212
		c0.4242-0.106,0.901-0.2997,1.4309-0.5827c0.4239-0.2469,0.8214-0.618,1.1925-1.1129c0.3708-0.4944,0.6277-1.1658,0.7683-2.014
		c-0.5645,0.3179-1.1831,0.4862-1.8548,0.5035c-0.6705,0.0182-1.2982-0.1142-1.8812-0.3975
		c-0.5831-0.2821-1.068-0.7063-1.4573-1.2718c-0.3884-0.5648-0.583-1.2536-0.583-2.0668c0-1.0243,0.3447-1.8898,1.0334-2.5967
		c0.689-0.7063,1.5815-1.1303,2.6763-1.2721c0.5657-0.0702,1.2454,0,2.0404,0.2123c0.795,0.212,1.44,0.6714,1.9344,1.3777
		c0.389,0.5654,0.6714,1.3164,0.8478,2.2523c0.1773,0.9365,0.1947,1.9168,0.0532,2.9411c-0.1409,1.0252-0.4589,2.0404-0.9542,3.0473
		c-0.4944,1.007-1.2098,1.8548-2.1463,2.5436c-0.9356,0.689-2.1014,1.1579-3.4974,1.4045
		c-1.3954,0.2475-3.0819,0.1415-5.0613-0.3179c-0.7061-0.212-1.2982-0.4412-1.7753-0.689
		c-0.4768-0.2466-0.9803-0.5912-1.5102-1.0334c-0.5299-0.4412-0.9888-0.9884-1.3781-1.6429
		c-0.3884-0.6532-0.6623-1.4306-0.8214-2.3316c-0.1588-0.901-0.1142-1.9517,0.1327-3.1533
		c0.1415-0.6359,0.4063-1.2271,0.7947-1.7753c0.3893-0.5472,0.795-1.0334,1.219-1.4573c0.2475-0.212,0.4953-0.4239,0.7419-0.6359
		c0.2478-0.212,0.5126-0.4057,0.795-0.5831c-1.6957-0.8123-2.826-1.7133-3.3917-2.7027c-0.2466-0.4239-0.3884-0.8828-0.424-1.3781
		c-0.0346-0.4941,0.106-1.0334,0.424-1.6161c0.3179-0.5831,0.8661-1.1925,1.6429-1.8284c0.7777-0.6359,1.8548-1.3067,3.2326-2.0137
		h-8.426v24.6955L273.167,218.1088z M273.167,189.4388v-4.7695c0.106-1.0947,0.6013-2.0844,1.4837-2.9678
		c0.8837-0.8828,2.2259-1.7306,4.0276-2.5439l2.6498-0.8478l-7.1542,1.2189h-6.6246l1.007-1.113l2.6498-0.4771l1.0598-0.5299
		l0.901-0.8479v-2.8618l3.1797-3.1266v5.9884h33.0158l-3.2326,2.9678c-4.0279,0-7.4369,0-10.2283,0
		c-2.7904,0-5.1047,0.0091-6.9422,0.0264c-1.8366,0.0182-3.2593,0.0264-4.266,0.0264c-1.007,0-1.7574,0.0091-2.2523,0.0264
		c-0.4944,0.0182-0.8032,0.0267-0.9274,0.0267c-0.1233,0-0.2029,0-0.2384,0c-1.0947,0.177-2.1372,0.6887-3.1269,1.5369
		c-0.9888,0.8478-1.5897,1.873-1.8017,3.0735v1.9608L273.167,189.4388z M273.167,177.1974v-19.131l3.1797-3.0738v0.053
		c0.9538,3.0033,2.0932,5.3791,3.4181,7.1278c1.3249,1.7489,2.7209,3.092,4.1864,4.0278c1.4667,0.9365,2.9596,1.5549,4.4782,1.8548
		c1.5196,0.3005,2.9678,0.5033,4.3456,0.6093c2.1199,0.1772,3.9043,0.1326,5.3525-0.1324c1.4491-0.265,2.6413-0.636,3.5772-1.113
		c0.9365-0.4769,1.652-1.0334,2.1461-1.6693c0.4953-0.6359,0.8573-1.2454,1.0865-1.8284c0.2302-0.5829,0.3626-1.0773,0.3975-1.4837
		c0.0355-0.4059,0.0529-0.6442,0.0529-0.7154c-0.3526,0.3891-0.7765,0.7245-1.2718,1.0068
		c-0.4944,0.2832-0.9979,0.4771-1.5105,0.5831c-0.5117,0.106-1.0243,0.1242-1.5369,0.053c-0.5117-0.0704-0.9803-0.2651-1.4042-0.583
		c-0.4588-0.3179-0.8123-0.7063-1.0598-1.1658c-0.2469-0.4588-0.3975-0.9358-0.4506-1.4309
		c-0.0529-0.4944-0.0082-0.9888,0.1324-1.4839c0.1418-0.4944,0.3893-0.9538,0.7422-1.3779
		c0.5654-0.6707,1.2636-1.1128,2.0932-1.3248c0.8305-0.212,1.652-0.1937,2.4643,0.053c0.283,0.0712,0.6541,0.2302,1.1129,0.4769
		c0.4595,0.2477,0.9189,0.6095,1.3778,1.0864c0.4588,0.4769,0.8387,1.06,1.1394,1.7488c0.2997,0.6889,0.4321,1.493,0.3975,2.4113
		c-0.0714,1.7671-0.5126,3.2417-1.3249,4.4251c-0.8123,1.184-1.8102,2.1553-2.9942,2.9146
		c-1.1834,0.7601-2.4552,1.334-3.8156,1.7224c-1.3596,0.3892-2.614,0.6714-3.7625,0.8479
		c-1.1479,0.1772-2.4819,0.3006-4.0012,0.3709c-1.908,0.1772-3.7182,0-5.4321-0.5299c-1.7133-0.5299-3.2593-1.1833-4.6371-1.9608
		c-1.3778-0.7768-2.5256-1.5451-3.4445-2.3053c-0.9183-0.7593-1.5369-1.2984-1.8548-1.6163v8.4261L273.167,177.1974z
		 M276.3467,153.9862v3.2857l-3.1797,3.0738v-32.062l3.1797-3.1797v25.4905h13.4077c-1.802-1.8017-3.303-3.5323-4.5047-5.1934
		c-1.2007-1.6603-2.1901-3.1615-2.9678-4.5047c-0.8825-1.4837-1.6071-2.9321-2.1728-4.3456
		c0.1415-0.1407,0.2833-0.3088,0.4239-0.5035c0.1418-0.1937,0.3007-0.4148,0.4771-0.6623l3.2326-4.4517
		c3.5332,1.9078,6.757,3.1184,9.6717,3.6302c2.9146,0.5124,5.4849,0.6623,7.7108,0.4503c1.2718-0.0703,2.4825-0.2467,3.6301-0.5299
		c1.1476-0.2824,2.2341-0.6534,3.2593-1.1129l-0.7422,2.2259c-3.2144,1.1658-6.0677,1.926-8.5587,2.2787
		c-2.4907,0.3536-4.6104,0.486-6.3592,0.3975c-1.7488-0.0879-3.1534-0.2733-4.2132-0.5565
		c-1.0598-0.2824-1.7661-0.4769-2.1199-0.5831c0.6362,2.2259,1.6255,4.1254,2.9678,5.697c1.3431,1.5724,2.7027,2.8708,4.0807,3.8951
		c1.6611,1.2372,3.3741,2.2441,5.1405,3.0208l-4.3458,4.2396H276.3467z M285.3557,102.5289
		c-1.2363,0.3535-2.287,0.8305-3.1533,1.4307c-0.8652,0.6013-1.4919,1.0425-1.8813,1.3249
		c-1.0243,0.8131-1.6338,1.6254-1.8281,2.4377c-0.1941,0.8132-0.1765,1.5287,0.0528,2.1464c0.2302,0.6186,0.583,1.113,1.0598,1.4839
		c0.4771,0.3709,0.8746,0.5217,1.1925,0.4505c1.1658-1.7663,2.2614-2.9852,3.2857-3.6567c1.0249-0.6708,1.9259-1.0509,2.7027-1.1395
		c0.7774-0.0878,1.3868-0.0173,1.8284,0.2121c0.4421,0.2302,0.6623,0.3626,0.6623,0.3974c0.7777,0.742,1.2718,1.4575,1.4837,2.1464
		c0.2123,0.6889,0.2651,1.334,0.1591,1.9342c-0.106,0.6013-0.3353,1.1578-0.6891,1.6694c-0.3525,0.5126-0.7154,0.9538-1.0862,1.3249
		c-0.3711,0.3709-0.8564,0.751-1.4573,1.1394c0.9894,0.5299,1.7844,1.1485,2.3847,1.8548c0.495,0.6011,0.8214,1.343,0.9803,2.2258
		c0.1591,0.8835-0.1497,1.8904-0.9274,3.0206c-0.7419,1.1312-1.6161,1.7488-2.6231,1.8548c-1.007,0.106-1.9872-0.0878-2.9413-0.5829
		c-0.9538-0.4944-1.8366-1.2098-2.6495-2.1464c-0.8123-0.9356-1.4127-1.863-1.802-2.7822c0,0.0357-0.1937,0.1772-0.5827,0.4241
		c-0.3884,0.2475-0.8214,0.5654-1.2985,0.9538c-0.4771,0.3892-0.9092,0.848-1.2985,1.3779
		c-0.3884,0.5299-0.5827,1.0955-0.5827,1.6959v4.4515l-3.1797,3.0208v-5.6705c-0.0349-0.742,0.0446-1.5369,0.2384-2.3849
		c0.1947-0.8479,0.5299-1.6693,1.007-2.4641c0.4771-0.795,1.0953-1.5014,1.8548-2.1198c0.7601-0.6178,1.6875-1.0509,2.7822-1.2985
		c-0.3179-0.1408-0.7686-0.3791-1.3513-0.7155c-0.5831-0.3353-1.1743-0.7858-1.7753-1.3513
		c-0.6004-0.5647-1.1479-1.2454-1.6429-2.0402c-0.4944-0.795-0.8299-1.7397-1.007-2.8352c-0.0705-0.3527-0.106-0.6799-0.106-0.9804
		c0-0.2997,0.1506-0.6625,0.4503-1.0864c0.3006-0.4241,0.8305-0.9358,1.59-1.5369c0.7601-0.6004,1.8813-1.3952,3.365-2.3847
		c0.9541-0.6004,1.8639-1.1659,2.7294-1.6959c0.8661-0.5301,1.5815-0.954,2.1463-1.2719l-8.2675,1.1659h-7.5781
		c0.318-0.4588,0.6714-0.848,1.0598-1.1659c0.3538-0.3179,0.7337-0.6004,1.1394-0.8479c0.4066-0.2469,0.8214-0.3884,1.2454-0.4241
		h0.689c0.0714,0,0.106-0.0173,0.106-0.053c0.2475-0.1408,0.4239-0.2997,0.5299-0.4769c0.3893-0.3527,0.6541-0.9886,0.795-1.9078
		v-1.2719l3.1797-3.1266v5.8294h32.4327l-2.7027,3.4447H285.3557z M259.7603,315.4677l-0.6918-0.6517
		c0.6211-1.7094,0.7744-3.2314,0.4596-4.5667c-0.3148-1.3348-0.907-2.4124-1.7768-3.2318c-0.1785-0.1681-0.3493-0.2592-0.5127-0.275
		c-0.1527-0.0056-0.2639,0.0283-0.3329,0.1015c-0.0593,0.063-0.1114,0.1918-0.1566,0.3865
		c-0.1083,0.472-0.3746,0.9335-0.7989,1.3839c-0.5827,0.6186-1.3295,0.9286-2.2413,0.93c-0.9113,0.0019-1.692-0.3031-2.342-0.9155
		c-0.6918-0.6517-1.0526-1.486-1.083-2.5038c-0.0304-1.0178,0.3048-1.8984,1.006-2.6426c0.849-0.9012,1.9232-1.3432,3.2225-1.3263
		c1.2991,0.0176,2.5568,0.5986,3.7724,1.7439c1.4985,1.4117,2.4024,3.1192,2.7116,5.1215
		C261.3058,311.024,260.8935,313.1727,259.7603,315.4677z M60.9894,97.2432c1.4338,1.8677,2.6684,3.7276,3.7027,5.5789
		c1.0335,1.8513,1.9013,3.5776,2.6019,5.1787c0.7004,1.6013,1.2508,3.0271,1.6512,4.2781c0.4002,1.2508,0.7004,2.2094,0.9005,2.877
		h2.3017V96.0423l3.0021-2.9022v27.1194l-3.0021,2.902v-5.0034H41.6756l1.1008-1.2009l2.902-1.501
		c1.3009-0.7006,2.4268-1.426,3.3774-2.1766c0.9506-0.7505,1.7763-1.5097,2.4767-2.2766c0.7006-0.7678,1.2924-1.5434,1.7763-2.3267
		c0.4831-0.7841,0.8756-1.5433,1.1758-2.2766c0.7006-1.7012,1.0507-3.4025,1.0507-5.1037c0.133-0.0673,0.2917-0.1751,0.4754-0.3252
		c0.183-0.15,0.3917-0.3088,0.6254-0.4753c0.4332-0.3003,1.0008-0.7092,1.7012-1.2259
		C59.038,98.752,59.9214,98.0765,60.9894,97.2432z M47.4798,103.0974c0.867,0,1.6011,0.3002,2.2015,0.9005
		c0.6005,0.6005,0.9007,1.3337,0.9007,2.2016c0,0.9335-0.3002,1.6927-0.9007,2.2766c-0.6004,0.5832-1.3345,0.8756-2.2015,0.8756
		c-0.8679,0-1.6098-0.2924-2.2267-0.8756c-0.6177-0.584-0.9256-1.3431-0.9256-2.2766c0-0.8679,0.3079-1.6011,0.9256-2.2016
		C45.8701,103.3976,46.6119,103.0974,47.4798,103.0974z M65.7929,115.206c-0.1673-0.5676-0.3503-1.1594-0.5504-1.7763
		c-0.2001-0.6177-0.434-1.2595-0.7006-1.9263c-0.4675-1.1008-1.1093-2.3689-1.9263-3.8027c-0.8178-1.4345-1.86-2.9192-3.1272-4.4532
		c-0.1001,0.3002-0.3339,0.9007-0.7006,1.8014c-0.3674,0.9005-0.9342,1.9341-1.7012,3.1022
		c-0.7677,1.1672-1.7763,2.3767-3.0272,3.6275c-1.251,1.251-2.827,2.3768-4.7283,3.3774h13.4095c0.5003,0,1.0008,0,1.501,0
		S65.2589,115.1723,65.7929,115.206z M60.7392,122.9112c1.4339,1.8342,2.6848,3.6691,3.7528,5.504
		c1.0671,1.834,1.9678,3.5525,2.7019,5.1536c0.7334,1.6011,1.3173,3.0272,1.7513,4.2781c0.433,1.2508,0.7505,2.2094,0.9506,2.877
		h2.2516v-20.1644l3.0021-2.902v29.1208l-3.0021,2.902v-6.0042H41.1753l2.1014-1.5011l2.2517-1.0509
		c1.3009-0.6676,2.4345-1.3846,3.4023-2.1515c0.9672-0.7677,1.8014-1.5511,2.5018-2.3516c0.7006-0.8006,1.2923-1.6011,1.7763-2.4017
		c0.4831-0.8006,0.8756-1.5683,1.1758-2.3017c0.6333-1.7684,0.9834-3.5197,1.0507-5.2537l1.0509-0.6505
		c0.4002-0.2674,0.942-0.6427,1.6262-1.1259C58.7957,124.4038,59.6713,123.7446,60.7392,122.9112z M65.2425,140.7741
		c-0.2001-1.1681-0.5676-2.3518-1.1008-3.5527c-0.4002-1.0679-0.9929-2.3015-1.7763-3.7027
		c-0.7841-1.401-1.8099-2.8692-3.0771-4.4031c-0.1338,0.3002-0.4089,0.8756-0.8257,1.7262
		c-0.4174,0.8506-1.0179,1.8342-1.8012,2.9521c-0.7842,1.1172-1.7513,2.293-2.902,3.5275c-1.1509,1.2338-2.5105,2.3682-4.078,3.4025
		c1.501,0,3.1438,0.0077,4.9286,0.0251c1.7841,0.0164,3.4775,0.0251,5.0786,0.0251H65.2425z M74.7993,140.1733
		c0.333,0.3674,0.6505,0.6678,0.9506,0.9007c0.2666,0.2001,0.5668,0.3503,0.9005,0.4503c0.3331,0.1001,0.6505,0.05,0.9508-0.1502
		c0.333-0.2001,0.6004-0.4253,0.8005-0.6755c0.2001-0.2501,0.3416-0.6418,0.4253-1.1758c0.0829-0.5331,0.1415-1.2508,0.1752-2.1515
		c0.0328-0.9007,0.0664-2.1014,0.1001-3.6026c0-2.0341,0.2252-3.6439,0.6755-4.8284c0.4502-1.1837,0.9757-2.0765,1.5761-2.6769
		c0.6005-0.6005,1.2086-0.9836,1.8263-1.1509c0.6169-0.1664,1.0922-0.2501,1.426-0.2501c1.0335,0.1001,1.8841,0.4588,2.5519,1.0758
		c0.6669,0.6175,1.2086,1.3846,1.6262,2.3015c0.4166,0.9178,0.7168,1.9186,0.9005,3.0023c0.183,1.0843,0.3081,2.1265,0.3753,3.1272
		c0.0664,1.0007,0.0829,1.9013,0.0499,2.7019c-0.0336,0.8006-0.0673,1.401-0.1001,1.8012
		c-0.2674,2.1688-0.8005,4.0529-1.6011,5.6541c-0.8006,1.6011-1.7262,2.9685-2.7769,4.1029
		c-1.0509,1.1336-2.1602,2.0515-3.3275,2.752c-1.1679,0.7004-2.2602,1.2508-3.2772,1.6512
		c-1.0181,0.4002-1.885,0.6754-2.6019,0.8255c-0.7177,0.1502-1.143,0.2252-1.276,0.2252v3.3024l-3.0021,2.902v-6.2045H41.7757
		l2.8521-2.902h27.5196v-4.8534l3.0021-2.4017v7.5553c2.2344-0.5003,4.0279-1.1758,5.3789-2.0264
		c1.3509-0.8506,2.3931-1.6848,3.1272-2.5018c0.7334-0.817,1.2173-1.534,1.4509-2.1515c0.2331-0.6169,0.3503-0.9421,0.3503-0.9757
		c0.9335-2.6348,1.534-5.0036,1.8014-7.1052c0.2665-2.1014,0.3166-3.8856,0.15-5.3537c-0.1673-1.4675-0.509-2.5847-1.0257-3.3525
		c-0.5176-0.7669-1.0931-1.1171-1.7262-1.0507c-0.4339,0.0337-0.7678,0.2674-1.0007,0.7006
		c-0.2338,0.4338-0.4002,0.9757-0.5005,1.6262c-0.1001,0.6505-0.1672,1.3682-0.2001,2.1515
		c-0.0336,0.7841-0.0673,1.5433-0.1001,2.2766c0,0.9342-0.0172,1.8099-0.05,2.6269c-0.0337,0.8178-0.1251,1.5683-0.2753,2.2516
		c-0.15,0.684-0.4002,1.326-0.7505,1.9263c-0.3503,0.6005-0.8255,1.1681-1.426,1.7012c-0.5676,0.5004-1.1758,0.8342-1.8263,1.0007
		c-0.6505,0.1673-1.2508,0.2587-1.8012,0.2753c-0.5504,0.0172-1.1931-0.0579-1.9263-0.2252V140.1733z M44.1274,171.0453
		c0.7332-1.1344,1.7176-1.9186,2.952-2.3516c1.2337-0.4339,2.4518-0.6842,3.6527-0.7505c1.2672-0.0337,2.7683,0.1001,4.5031,0.4002
		l-2.0013,2.7519c-0.3676-0.3002-0.8257-0.5676-1.3761-0.8005c-0.5504-0.2338-1.1257-0.3002-1.7262-0.2001
		c-0.6004,0.1001-1.1758,0.4253-1.7262,0.9757c-0.5504,0.5504-0.9929,1.4588-1.326,2.727c-0.4002,1.4338-0.584,2.8934-0.5504,4.378
		c0.0329,1.4837,0.0079,2.9599-0.075,4.4281c-0.0837,1.4673-0.3339,2.9098-0.7505,4.3282
		c-0.4175,1.4172-1.2759,2.7768-2.5768,4.0777h0.7505c2.802-0.9678,5.2951-1.576,7.4803-1.8263
		c2.1843-0.2502,4.0528-0.3252,5.604-0.225c1.5512,0.0999,2.7935,0.283,3.7277,0.5502c0.9335,0.2666,1.551,0.4333,1.8513,0.5005
		c-0.6005-2.1014-1.5261-3.8864-2.7771-5.3537c-1.2508-1.4683-2.5267-2.6857-3.8276-3.6526
		c-1.5348-1.1345-3.1696-2.1017-4.9035-2.9022l4.1029-4.0029h5.1037c0.5668-0.3339,1.2086-0.7341,1.9263-1.2009
		c0.717-0.4675,1.3759-0.9929,1.9764-1.5762c0.6004-0.584,1.0835-1.2344,1.4511-1.9514c0.3665-0.7176,0.4831-1.5096,0.3501-2.3767
		c-0.3002,0.3331-0.6754,0.6005-1.1257,0.8006c-0.4503,0.2001-0.9257,0.3166-1.426,0.3503
		c-0.5005,0.0328-0.9929-0.0251-1.4762-0.1752c-0.4839-0.15-0.9256-0.4089-1.3258-0.7756
		c-0.8006-0.7341-1.1931-1.5932-1.1758-2.5768c0.0164-0.9842,0.3079-1.9263,0.8755-2.827c0.3331-0.4675,0.9086-0.8506,1.7264-1.1508
		c0.8169-0.3002,1.684-0.3925,2.6019-0.2753c0.9169,0.1166,1.7926,0.5255,2.6268,1.2259c0.8334,0.7006,1.4339,1.8342,1.8014,3.4025
		c0.1329,1.1008,0.0664,2.0929-0.2003,2.977c-0.2672,0.8835-0.659,1.6927-1.1758,2.4268c-0.5175,0.7334-1.118,1.4087-1.8012,2.0264
		c-0.684,0.6169-1.3595,1.1758-2.0264,1.6763h8.3059v-16.9121l3.0021-2.3518v41.9802l-3.0021,3.0021v-22.5161h-12.659
		c1.7012,1.7012,3.1186,3.3437,4.2531,4.9283c1.1336,1.5839,2.0679,2.9936,2.802,4.228c0.9005,1.5676,1.584,2.9523,2.0515,4.153
		c-0.1338,0.133-0.2674,0.283-0.4004,0.4503c-0.1336,0.1664-0.2838,0.3832-0.4502,0.6505
		c-0.3003,0.4002-0.6927,0.9335-1.1758,1.6013c-0.4841,0.6669-1.1095,1.5175-1.8764,2.5518
		c-2.0015-1.068-3.8864-1.8849-5.6541-2.4518c-1.7684-0.5676-3.4524-0.9678-5.0536-1.2007
		c-1.8686-0.2338-3.5527-0.2924-5.0537-0.1752c-1.501,0.1166-2.7769,0.2915-3.8276,0.5254
		c-1.0509,0.2329-1.8679,0.4667-2.4518,0.7006c-0.5832,0.2329-0.892,0.3501-0.9256,0.3501h-4.0028l1.1508-1.5011
		c1.3345-0.6341,2.2938-1.4431,2.877-2.4266c0.5841-0.9842,0.9593-2.0765,1.1259-3.2772c0.1673-1.201,0.2001-2.4767,0.1001-3.8278
		c-0.1001-1.351-0.1751-2.6942-0.2252-4.0279c-0.05-1.3346,0-2.652,0.1502-3.9529
		C43.0515,173.2969,43.4604,172.1124,44.1274,171.0453z"/>
</g>
</svg>
